<?xml version="1.0" encoding="utf-8"?>
<!-- Generator: Adobe Illustrator 22.0.1, SVG Export Plug-In . SVG Version: 6.00 Build 0)  -->
<svg version="1.1" id="Calque_1" xmlns="http://www.w3.org/2000/svg" xmlns:xlink="http://www.w3.org/1999/xlink" x="0px" y="0px"
	 viewBox="0 0 439.4 439.4" style="enable-background:new 0 0 439.4 439.4;" xml:space="preserve">
<g>
	<path d="M46.5,225.8c-0.3,0-0.7-0.3-1.2-0.8c-0.9-1-1.5-2.2-1.7-3.7c-0.1-0.4-0.1-0.7-0.1-1.1l0-0.4c0-0.8,0.5-1.4,1.2-1.7
		c0.4-0.2,0.9-0.2,1.5-0.2c0.4,0,0.9,0.1,1.5,0.3c0.1,0,0.2,0.1,0.3,0.1l-0.3-0.3c-1.4-1.5-2.4-3-3-4.5c-0.4-0.9-0.6-1.8-0.5-2.5
		c0.1-1.7,0.8-2.8,2.3-3.5c0.7-0.3,1.3-0.4,1.9-0.4c1,0.1,2.1,0.5,3.3,1.2c1,0.7,2,1.5,2.8,2.6c0.1,0.1,0.1,0.2,0.2,0.2
		c0,0,0.1-0.4,0.1-1.1c0.1-2.1-0.2-3.7-0.9-4.8l-0.6-0.9c-0.1-0.2-0.2-0.4-0.1-0.6l0-0.1c0-0.1,0.1-0.2,0.3-0.2c0.3,0,0.7,0.4,1.2,1
		c1,1.2,1.6,2.7,2,4.4c0.2,0.9,0.2,1.9,0.2,2.9c0,0.6-0.2,2-0.5,4.1c-0.1,0.7-0.2,1.3-0.2,1.9c0,0.2,0,0.5-0.1,0.8
		c-0.1,1.8,0.1,3.6,0.5,5.4c0.1,0.3,0.1,0.4,0.1,0.5c0,0.1-0.1,0.2-0.2,0.2c-0.2,0-0.5-0.2-0.9-0.6c-0.3-0.3-0.4-0.4-0.6-0.5
		c-1.2-0.9-2.7-1.6-4.5-2.3c-1-0.4-1.7-0.6-2.2-0.6c-0.9,0-1.6,0.2-2,0.8c-0.2,0.2-0.3,0.5-0.3,0.8c-0.1,1,0.1,1.9,0.6,2.6
		c0.2,0.4,0.4,0.7,0.4,0.8c0,0.1,0,0.1,0,0.2C46.7,225.7,46.6,225.8,46.5,225.8z M54,216.4l0.2-2.3c0.1-1.4-0.2-2.4-0.8-3
		c-0.8-0.8-1.7-1.3-2.8-1.5c-0.1,0-0.2,0-0.3,0c-1.1-0.1-2,0.3-2.8,1c-0.6,0.5-0.9,1.2-1.1,2c0,0.1,0,0.3-0.1,0.5
		c0,0.7,0.2,1.6,0.8,2.6c0.4,0.8,1,1.5,1.8,2.1c0.8,0.7,2,1.6,3.6,2.6c0.7,0.4,1.3,0.8,1.7,1.1l-0.3-1.9
		C53.9,218.5,53.9,217.5,54,216.4z"/>
	<path d="M47.5,207.6c-0.3,0-0.7-0.3-1.1-0.9c-0.8-1.1-1.3-2.3-1.5-3.8c0-0.4,0-0.7,0-1.1l0.1-0.4c0.1-0.8,0.6-1.3,1.4-1.6
		c0.4-0.1,0.9-0.2,1.5-0.1c0.9,0.1,2.2,0.6,3.8,1.5c2.2,1.1,3.8,2.3,4.9,3.5c0.6,0.7,1,1.3,1.1,1.8c0,0.1,0,0.1,0,0.2
		c0,0.1-0.1,0.2-0.2,0.2c-0.2,0-0.5-0.3-1.1-0.9c-0.2-0.2-0.3-0.3-0.4-0.4c-1.1-0.9-2.6-1.8-4.4-2.6c-1-0.4-1.7-0.7-2.1-0.7
		c-0.9-0.1-1.6,0.1-2.1,0.6c-0.2,0.2-0.3,0.5-0.4,0.8c-0.1,1,0,1.9,0.4,2.7c0.2,0.4,0.3,0.7,0.3,0.8c0,0.1,0,0.1,0,0.2
		C47.7,207.6,47.6,207.6,47.5,207.6z"/>
	<path d="M41.9,202.9c0,0.2-0.1,0.2-0.3,0.2l-0.1,0c-0.2,0-1.5-1.2-3.8-3.6c-2.1-2.1-3.4-3.5-3.8-4.1c-0.2-0.2-0.2-0.5-0.2-0.7
		c0-0.3,0.3-0.5,0.6-0.5c0.1,0,0.1,0,0.1,0c0.3,0,0.6,0.3,1.1,0.9l1.6,1.8c1.7,1.9,3.1,3.6,4.3,5.2c0.3,0.4,0.4,0.6,0.5,0.7
		C41.9,202.8,41.9,202.9,41.9,202.9z"/>
	<path d="M51.4,186c-0.3-0.1-0.8-0.1-1.6-0.2c-0.5,0-1.1-0.2-1.8-0.3c-4.9-1.1-9.3-4.1-13.2-8.9c-1.7-2.1-3.5-4.6-5.2-7.7
		c-0.7-1.2-1-1.9-1.1-2.3c0-0.1,0-0.2,0-0.3c0-0.1,0.1-0.2,0.2-0.2c0.3,0.1,0.6,0.3,0.8,0.8l1.4,2.5c0.6,1.1,1.4,2.2,2.2,3.3
		c3.8,5.3,8.1,8.6,12.9,9.9c0.2,0.1,0.4,0.1,0.6,0.2c2,0.5,4.2,0.5,6.6,0.2c2.4-0.3,4.2-0.8,5.4-1.7c0.6-0.4,1-0.8,1.2-1.3
		c0-0.1,0.1-0.2,0.1-0.3c0.2-0.7,0.1-1.4-0.2-2.1l-0.6-1.2c-0.1-0.2-0.2-0.4-0.2-0.6c-0.1-0.2-0.1-0.4,0-0.6
		c0.1-0.1,0.2-0.1,0.3-0.1c0.3,0.1,0.7,0.5,1.2,1.4c0.8,1.3,1.2,2.6,1.4,3.8c0.1,0.7,0.1,1.3,0,1.7c-0.3,1.4-1.7,2.4-4.3,3.1
		c-1.1,0.3-2.1,0.5-3,0.6c0,0,0.1,0.1,0.3,0.4c0.6,0.6,1.2,1.4,1.8,2.4c1.4,2.3,2.1,4.2,2,5.7c0,0.2,0,0.4-0.1,0.6
		c-0.2,0.8-0.6,1.4-1.2,1.9c-0.3,0.2-0.5,0.3-0.6,0.2c-0.3-0.1-0.6-0.4-1-1.1c-0.4-0.7-0.6-1.2-0.5-1.5c0-0.1,0.2-0.2,0.4-0.4
		c0.5-0.3,0.9-0.8,1.1-1.3c0-0.1,0.1-0.2,0.1-0.3c0.2-0.8,0-1.8-0.7-2.9c-0.8-1.2-1.8-2.2-3.1-2.9C52.5,186.4,52,186.1,51.4,186z"/>
	<path d="M62.2,179.3c0,0.1-0.1,0.2-0.2,0.1c-0.2-0.1-0.4-0.2-0.5-0.5c-0.3-0.6-0.8-1.2-1.4-1.9c-0.4-0.4-0.9-0.9-1.5-1.3
		c-0.8-0.7-2.1-1.7-3.7-2.8l-5.1-3.9c-3.3-2.6-6-5.1-8.1-7.5c-2.1-2.4-3.8-4.7-5.1-7.2c-1.2-2.3-1.8-3.8-1.6-4.3
		c0-0.1,0.1-0.2,0.2-0.1c0.3,0.1,0.6,0.6,1,1.4c0.6,1.2,0.9,1.8,0.9,1.9l0.2,0.4c1.2,2.2,2.8,4.3,4.7,6.2c2.7,2.8,6.7,6.2,12.1,10.2
		c0.7,0.5,1.1,0.8,1.4,1l-0.8-1.9c-0.9-2.2-1.1-4-0.6-5.2c0.5-1.3,1.5-2.1,2.9-2.3c0.8-0.1,1.4-0.1,1.9,0.1c0,0,0.1,0,0.1,0
		l-0.7-1.5c-0.6-1.3-0.9-2.5-1-3.6c-0.1-0.9,0-1.6,0.2-2.2c0.4-1,1-1.7,2-2.1s2.1-0.4,3.2,0c1.5,0.6,2.9,1.9,4,3.9
		c0.3,0.5,0.5,0.9,0.7,1.4l0.2-0.5c0.8-2.4,1.1-4.3,0.7-5.6l-0.3-0.9c0-0.2,0-0.4,0-0.6l0-0.1c0-0.1,0.1-0.1,0.3-0.1
		c0.3,0.1,0.6,0.5,0.8,1.2c0.7,1.8,0.9,3.8,0.5,5.9c-0.2,0.9-0.5,1.9-0.9,3.1c-0.4,1.1-1.1,2.8-2.3,5.3c-0.8,1.7-1.4,3.2-1.9,4.5
		c-1.1,3-1.9,6.1-2.4,9.2C62.2,179.1,62.2,179.2,62.2,179.3z M60.2,164.7c-1-0.4-2-0.4-3,0c-0.9,0.4-1.4,1-1.8,1.9
		c-0.5,1.5,0.3,3.6,2.6,6.3c0.2,0.2,0.9,1,2.2,2.4c0.3,0.3,0.5,0.5,0.6,0.7l0.1,0.1l0.4-2c0.3-1.1,0.7-2.6,1.2-4.3
		c0.5-1.5,0.6-2.3,0.5-2.6c-0.6-1.1-1.5-1.9-2.5-2.3C60.4,164.8,60.3,164.7,60.2,164.7z M63.6,155.2c-0.5-0.2-1.2-0.3-1.9-0.2
		c-1.4,0.1-2.3,0.8-2.8,2.1c0,0.1,0,0.1,0,0.1c-0.4,1.2,0.2,2.9,1.9,5c0.3,0.3,0.6,0.7,0.9,1.1c0.8,0.9,1.4,1.8,1.9,2.7l0.2,0.3
		l0-0.1c0.2-0.6,0.9-2.1,1.9-4.5c0.3-0.7,0.5-1.2,0.6-1.5c0.4-1.2,0.4-2.2-0.2-3c-0.1-0.2-0.3-0.4-0.5-0.7
		C65.1,156,64.4,155.5,63.6,155.2z"/>
	<path d="M50.5,155.8c-0.1,0.2-0.2,0.2-0.4,0.2c-0.1,0-0.1,0-0.2-0.1l-2.6-1.5c-1.7-1.1-2.5-2-2.4-2.7c0-0.1,0-0.1,0.1-0.2
		c0.1-0.2,0.3-0.4,0.6-0.5c0.3-0.1,0.5,0,0.8,0.1c0.5,0.2,1.5,1.3,3.2,3.1c0.4,0.4,0.6,0.7,0.7,0.9
		C50.5,155.4,50.5,155.6,50.5,155.8z M45.6,157.2c-0.4-0.2-0.6-0.5-0.6-0.8c0-0.1,0-0.2,0.1-0.4c0.3-0.6,1.1-0.7,2.5-0.4
		c0.5,0.1,1,0.3,1.4,0.5c1.7,0.8,2.5,1.4,2.3,1.8c-0.1,0.2-0.3,0.3-0.7,0.2l-1.9-0.5c-0.8-0.2-1.6-0.3-2.3-0.3
		C46,157.3,45.8,157.2,45.6,157.2z M49.5,152.9c-0.5-1-0.7-1.7-0.6-2.1c0,0,0-0.1,0.1-0.2c0.2-0.3,0.4-0.5,0.8-0.4
		c0.1,0,0.2,0,0.3,0.1c0.3,0.2,0.6,0.7,0.9,1.6l0.7,2.2c0.1,0.4,0.3,0.7,0.4,1.1c0.2,0.4,0.2,0.7,0.2,0.9c-0.1,0.2-0.2,0.3-0.4,0.2
		c0,0,0,0-0.1,0c-0.4-0.2-1-1-1.9-2.6C49.7,153.3,49.6,153.1,49.5,152.9z"/>
	<path d="M61.9,152.2c-0.3-0.1-0.5-0.5-0.8-1.2c-0.4-1.3-0.5-2.6-0.2-4c0.1-0.4,0.2-0.7,0.3-1.1l0.2-0.4c0.4-0.7,1-1.1,1.8-1.1
		c0.5,0,0.9,0.1,1.4,0.4c0.8,0.4,1.9,1.3,3.2,2.6c1.7,1.8,2.9,3.4,3.5,4.9c0.4,0.9,0.5,1.6,0.4,2.1c0,0.1,0,0.1-0.1,0.2
		c-0.1,0.1-0.2,0.2-0.3,0.1c-0.2-0.1-0.4-0.5-0.7-1.1c-0.1-0.2-0.2-0.4-0.2-0.5c-0.7-1.3-1.9-2.5-3.3-3.9c-0.8-0.7-1.4-1.2-1.8-1.4
		c-0.8-0.4-1.6-0.4-2.2-0.1c-0.3,0.1-0.5,0.4-0.6,0.6c-0.4,0.9-0.6,1.8-0.5,2.6c0.1,0.5,0.1,0.7,0.1,0.9c0,0.1,0,0.1-0.1,0.2
		C62.1,152.2,62,152.2,61.9,152.2z"/>
	<path d="M58,145.9c-0.1,0.1-0.2,0.2-0.4,0.1l-0.1,0c-0.2-0.1-1-1.6-2.4-4.6c-1.3-2.7-2.1-4.4-2.3-5.1c-0.1-0.3-0.1-0.5,0-0.7
		c0.2-0.3,0.4-0.4,0.8-0.3c0.1,0,0.1,0,0.1,0.1c0.2,0.1,0.5,0.5,0.8,1.2l0.9,2.3c1,2.3,1.8,4.4,2.4,6.3c0.2,0.5,0.2,0.7,0.2,0.8
		C58.1,145.9,58,145.9,58,145.9z"/>
	<path d="M77.8,120.7c1.1-1.7,1.6-3.2,1.6-4.5l-0.1-1.2c0-0.3,0.1-0.5,0.2-0.7c0.1-0.1,0.2-0.1,0.3-0.1c0.3,0.2,0.5,0.9,0.7,2.2
		c0.1,0.5,0.1,1,0.1,1.4c0,1.9-0.6,3.7-1.6,5.4c-0.1,0.1-0.2,0.3-0.3,0.4c-0.5,0.8-1.2,1.6-2.1,2.6c-0.1,0.1-0.2,0.3-0.3,0.3
		c-0.9,2.2-1.3,4.3-1.2,6.3c0.2,2.5,1.3,4.4,3.2,5.7c1.7,1.1,3.5,1.5,5.4,1.2c2-0.3,3.7-1.3,5.2-3c0.4-0.4,0.7-0.8,1-1.3
		c1.3-1.9,1.9-3.8,1.8-5.6c-0.1-0.8-0.2-1.5-0.6-2.2c-0.3-0.7-0.7-1.2-1.2-1.5c-0.3-0.2-0.6-0.2-1.1-0.2c-0.5,0-0.9,0-1.2-0.1
		c-0.1,0-0.1-0.1-0.2-0.1c-0.5-0.3-0.8-0.9-0.8-1.5c0-0.4,0.1-0.8,0.3-1.1c0.3-0.4,0.7-0.6,1.2-0.6c0.5,0,1,0.2,1.5,0.5
		c1.3,0.8,2.2,2.5,2.8,4.9c0.1,0.4,0.2,0.9,0.3,1.3c0.5,3.2-0.1,6.1-1.7,8.7c-0.1,0.1-0.1,0.2-0.2,0.4c-1.4,2.1-3.2,3.6-5.4,4.2
		c-1.8,0.6-3.6,0.5-5.3-0.2c-0.5-0.2-0.9-0.4-1.4-0.7c-1.2-0.8-2.2-1.9-2.9-3.2l-0.2-0.4c-1.1-2.1-1.6-4.5-1.6-7.3
		c0-0.7,0-1.3,0.1-2c-0.1-0.1-0.8,0.7-2.1,2.3c-0.7,0.8-1.2,1.4-1.4,1.8c-0.9,1.3-1.3,2.4-1.2,3.4l0,0.8c0,0.2-0.1,0.4-0.2,0.5
		c-0.1,0.1-0.2,0.2-0.3,0.1c-0.2-0.1-0.4-0.6-0.6-1.4c-0.3-1.4-0.2-2.8,0.3-4.1c0.1-0.4,0.3-0.8,0.5-1.1c0.2-0.4,0.4-0.7,0.7-1.1
		c0.8-1.2,2-2.6,3.7-4.3c1.6-1.6,2.8-2.8,3.4-3.6C77.1,121.6,77.5,121.2,77.8,120.7z"/>
	<path d="M68.7,114.1c-0.3-0.2-0.4-0.5-0.4-0.9c0-0.1,0.1-0.3,0.2-0.4c0.4-0.5,1.3-0.5,2.6,0.2c0.4,0.2,0.8,0.5,1.1,0.7
		c1.5,1.2,2.1,1.9,1.8,2.3c-0.1,0.2-0.4,0.2-0.7,0l-1.7-0.9c-0.7-0.3-1.4-0.6-2.2-0.8C69.1,114.3,68.8,114.2,68.7,114.1z
		 M73.7,113.9c-0.1,0.1-0.3,0.2-0.5,0.1c-0.1,0-0.1-0.1-0.2-0.1l-2.1-2c-1.5-1.5-2.1-2.6-1.7-3.3c0,0,0-0.1,0-0.1
		c0.2-0.3,0.6-0.4,1-0.3c0.2,0,0.3,0.1,0.5,0.3c0.4,0.3,1.2,1.5,2.3,3.6c0.3,0.6,0.5,1,0.6,1.1C73.9,113.6,73.9,113.8,73.7,113.9z
		 M74.9,114.5c-0.2-0.2-0.5-0.7-0.9-1.8c-0.6-1.6-0.8-2.8-0.7-3.6c0-0.2,0.1-0.4,0.2-0.6c0.2-0.3,0.5-0.4,0.9-0.3
		c0.1,0,0.2,0.1,0.3,0.2c0.3,0.2,0.5,0.8,0.5,1.8l0.2,2.4c0,0.4,0.1,0.7,0.1,1c0,0.5,0,0.7,0,0.9C75.3,114.6,75.1,114.6,74.9,114.5z
		"/>
	<path d="M82.2,122.3c0.5-0.7,0.8-1.4,0.8-2.1c0-0.4,0.1-0.6,0.1-0.7c0.1-0.1,0.1-0.1,0.2-0.1c0.2,0.1,0.3,0.5,0.4,1.1
		c0.2,1.2-0.1,2.4-0.7,3.5c-0.1,0.2-0.2,0.4-0.4,0.6c-0.4,0.5-1.1,1.2-2.2,2.1c-0.8,0.7-1.3,1.3-1.7,1.7c-0.5,0.6-0.7,1.3-0.8,2
		c0,0.4-0.1,0.7-0.2,0.8c-0.1,0.1-0.1,0.1-0.2,0c-0.2-0.1-0.3-0.5-0.4-1.2c-0.1-1.2,0.1-2.3,0.7-3.4c0.1-0.2,0.3-0.4,0.4-0.6
		c0.3-0.4,1.1-1.2,2.4-2.4C81.5,123,82,122.6,82.2,122.3z"/>
	<path d="M88.1,110.9c-0.2-0.2-0.3-0.8-0.3-1.7c0.1-1.6,0.6-3.3,1.6-5.1c0.7-1.4,1.7-2.6,2.9-3.8c1.2-1.1,2.6-2.4,4.3-3.8
		c2.5-2,5.1-4.4,7.9-7.1c0.3-0.3,0.7-0.7,1-1c0.9-0.9,1.4-1.6,1.6-2.2c0.1-0.2,0.2-0.4,0.3-0.5c0.1-0.1,0.2-0.1,0.3,0
		c0.2,0.2,0.3,0.6,0.3,1.2c0,1-0.4,1.9-1.1,2.9c0,0,0.2,0.4,0.5,1.2l1.3,2.7c1.1,2.4,1.9,4.3,2.4,5.6c2.8,7.3,4.3,16.2,4.5,26.6
		l0,5.5c-0.1,3.1-0.1,5.1-0.2,5.9c-0.1,0.6-0.2,1-0.4,1.2c-0.1,0.1-0.2,0.1-0.3,0c-0.2-0.2-0.3-0.9-0.3-2l0.2-6.1
		c0.1-4.3,0-8-0.3-11.1c-0.6-7.3-2.1-13.7-4.6-19.3c-0.5-1.2-0.8-1.8-0.8-1.8c0,0,0,0.4-0.1,1c-0.1,2.4-0.7,4.1-1.7,5
		c-1.1,1.1-2.3,1.3-3.9,0.8c-0.3-0.1-0.7-0.3-1.2-0.6l0,0.3c0,1.4-0.2,2.8-0.6,4c-0.3,1.1-0.8,1.9-1.4,2.5c-0.8,0.8-1.7,1.1-2.7,1.1
		c-1.1-0.1-2-0.5-2.9-1.4c-1.1-1.1-1.7-2.7-1.9-4.9c-0.1-0.9-0.1-1.8,0-2.8c0-0.1,0-0.2,0-0.2c0,0,0,0-0.1,0.1
		c-1.7,1.7-2.8,3.3-3.3,5c-0.2,0.6-0.3,1.1-0.3,1.6c0,0.6-0.2,1-0.4,1.2C88.3,111,88.2,111,88.1,110.9z M99.4,97
		c-0.1,0.1-1.2,1-3.3,2.8c-1,0.8-1.6,1.3-1.9,1.6c-0.4,0.4-0.6,1-0.7,1.8c0,0.2,0,0.5-0.1,1c-0.1,1.1,0.2,2.2,0.9,3.1
		c0.2,0.3,0.3,0.5,0.5,0.7c0.9,0.9,2,1.3,3.3,1.1c0.3,0,0.6-0.1,0.8-0.2c0.3-0.1,0.6-0.4,0.9-0.6c0.6-0.6,1-1.5,1.1-2.6
		c0.1-0.6,0-1.1-0.1-1.6c-0.1-0.3-0.3-0.9-0.7-1.8c-0.5-1.3-0.8-2.6-0.9-3.8c0-0.4,0-0.9,0-1.4C99.4,97,99.4,97,99.4,97L99.4,97z
		 M101.5,95.1c-1.1,1.1-1.4,2.4-0.8,4c0.3,0.7,0.7,1.4,1.2,1.8c0.8,0.8,1.8,1.2,2.8,1.2c0.2,0,0.4,0,0.6-0.1
		c0.7-0.1,1.2-0.4,1.6-0.8c0.9-0.9,1.1-2.3,0.8-4.3c-0.2-1.1-0.5-2.2-1-3.3c-0.4-0.9-0.6-1.5-0.7-1.8c-0.1-0.3-0.2-0.6-0.2-0.9
		l-0.9,0.9L101.5,95.1z"/>
	<path d="M106.9,90.6c-0.2-0.2-0.2-0.7-0.1-1.4c0.2-1.3,0.7-2.5,1.6-3.6c0.3-0.3,0.5-0.6,0.9-0.9c0.5-0.5,1-0.7,1.4-0.7
		c0.3,0,0.6,0.1,1,0.3c0.4,0.2,0.8,0.5,1.1,1c0.3,0.4,0.6,1,0.8,1.6c0,0,0-0.2,0.1-0.6c0.1-0.7,0.3-1.6,0.6-2.7
		c0.7-2.1,1.5-3.6,2.5-4.3c0.9-0.7,2-1,3.1-0.8c1.2,0.2,2.3,0.9,3.2,2c0.8,1,1.2,2.4,1.3,4.2c0.1,1.7-0.2,3.3-0.9,4.7
		c-0.4,1-1,1.7-1.8,2.3c-1.1,0.8-1.9,0.9-2.5,0.2c0,0-0.1-0.1-0.1-0.1c-0.3-0.3-0.4-0.7-0.4-1.2c0-0.6,0.3-1,0.7-1.4
		c0.3-0.3,0.7-0.4,1.2-0.3c0.4,0.1,0.6,0.1,0.7,0.1c0.2,0,0.4-0.1,0.6-0.3c1.1-0.8,1.5-1.9,1.1-3.3c-0.2-0.7-0.5-1.3-0.9-1.8
		c-0.8-1.1-1.8-1.7-3-1.9c-1-0.1-1.9,0.1-2.7,0.7c-1.1,0.8-1.7,2.3-1.9,4.4c-0.1,1.6,0,3.3,0.4,5c0.9,3.6,1.6,8,2.1,13.3
		c0.8,7.6,0.9,14.7,0.4,21.3l-0.2,1.9c-0.1,1-0.3,2.7-0.7,5.1c-0.1,1-0.3,1.6-0.3,1.9c-0.1,0.6-0.3,1-0.5,1.1
		c-0.1,0.1-0.2,0.1-0.3,0c-0.2-0.2-0.2-0.7-0.1-1.5l0.5-3.6l0.1-0.5c1.2-9.4,0.8-20.2-1.2-32.2c-0.6-3.8-1.4-6.7-2.2-8.8
		c-0.3-0.7-0.5-1.2-0.8-1.5c-0.4-0.6-0.9-0.9-1.5-1c-0.4-0.1-0.8,0-1.2,0.3c-0.8,0.6-1.3,1.3-1.6,2.1c-0.1,0.4-0.2,0.7-0.3,0.8
		c0,0.1-0.1,0.1-0.2,0.2C107.1,90.7,107,90.7,106.9,90.6z"/>
	<path d="M110.2,86.2c-0.1,0.1-0.1,0-0.2,0c-0.1-0.1-0.1-0.3-0.1-0.5c0.4-5.9,0.8-10,1.1-12.3c0.4-3.1,1-5.4,1.8-6.9
		c0.4-0.7,0.9-1.4,1.4-1.8l0.3-0.2c1.1-0.8,2.2-0.8,3.2-0.2c0.4,0.2,0.7,0.6,1,1c0.6,0.9,0.8,2,0.6,3.4c-0.2,1.2-0.6,2.2-1.2,3
		c-0.2,0.2-0.4,0.4-0.6,0.6c-0.6,0.4-1.3,0.5-1.9,0.2c-0.3-0.1-0.6-0.4-0.8-0.7c-0.4-0.6-0.5-1.4-0.3-2.4c0.2-0.6,0.3-1,0.5-1.1
		c0.1-0.1,0.2-0.1,0.2,0c0.1,0.1,0.1,0.3,0.1,0.6c0,0.3,0,0.5,0.2,0.7c0.2,0.3,0.5,0.5,0.9,0.6c0.5,0.1,0.9,0,1.4-0.3
		c0.5-0.3,0.7-0.7,0.6-1.1c-0.1-0.4-0.2-0.9-0.5-1.3c-0.5-0.7-1.2-1.1-2-1.2c-0.6-0.1-1.1,0.1-1.6,0.4c-1.3,0.9-2.2,3.1-2.5,6.7
		l-0.6,6.7l-0.3,3.5C110.8,85.1,110.5,85.9,110.2,86.2z"/>
	<path d="M128.8,73.9c-0.1-0.2-0.1-0.7,0.1-1.4c0.4-1.3,1.1-2.4,2.2-3.3c0.3-0.3,0.6-0.5,1-0.7c0.6-0.4,1.1-0.5,1.5-0.4
		c0.3,0,0.6,0.2,0.9,0.4c0.4,0.3,0.7,0.7,0.9,1.1c0.2,0.4,0.3,0.8,0.5,1.4l0,0c0,0,0.1-0.3,0.4-1c0.9-2.7,2.1-4.5,3.6-5.2
		c1.3-0.7,2.6-0.5,3.8,0.4c0.5,0.4,0.9,0.8,1.2,1.3c0.1,0.1,0.1,0.1,0.1,0.1l0.6-1.6c0.9-2.5,2-4,3.2-4.6l0.2-0.1
		c0.9-0.5,1.9-0.5,2.9-0.1c1,0.4,1.8,1.1,2.3,2.2c0.4,0.9,0.6,2,0.6,3.4c-0.1,1-0.2,1.9-0.6,3l-0.2,0.7l0.1-0.1c0,0,0.1,0,0.2-0.1
		c2.5-1.2,4-2.5,4.6-3.8l0.1-0.2c0.2-0.5,0.4-0.8,0.7-1l0,0c0.1-0.1,0.2,0,0.3,0.1c0.1,0.3,0.1,0.8-0.2,1.5
		c-0.5,1.4-1.4,2.7-2.8,3.9c-0.4,0.4-0.9,0.7-1.4,1c-0.6,0.4-1.3,0.8-2.1,1.2c-1.2,0.6-3,1.4-5.4,2.4c-1.6,0.7-3,1.3-4.2,1.9
		l-1.6,0.8c-1.9,1-3.7,2.1-5.3,3.3l-0.4,0.3l0,0.3c-0.1,6.9-0.7,13.7-1.9,20.4c-0.6,3.3-1.3,6.5-2.1,9.5l-0.5,1.9
		c-0.3,0.9-0.8,2.6-1.6,4.8c-0.3,0.9-0.6,1.5-0.7,1.8c-0.2,0.5-0.5,0.9-0.7,1c-0.1,0.1-0.2,0-0.3-0.1c-0.1-0.2-0.1-0.7,0.2-1.5
		l1.2-3.4l0.2-0.4c2.8-8.8,4.4-19,4.7-30.6l0.1-3.4c0.1-0.9,0-2.3-0.2-4.4c-0.2-2.1-0.5-3.5-0.8-4.1c-0.3-0.6-0.7-1-1.3-1.2
		c-0.4-0.1-0.8-0.1-1.2,0.1c-0.9,0.5-1.6,1.1-2,1.8c-0.2,0.4-0.4,0.6-0.4,0.7c-0.1,0.1-0.1,0.1-0.2,0.1
		C128.9,74,128.9,74,128.8,73.9z M143.8,69.8c-0.7-1.4-1.8-2.1-3.2-2.2c-0.6,0-1.1,0.1-1.5,0.3c-1.3,0.6-2.1,2.3-2.4,4.9
		c-0.1,1.2-0.2,2.5-0.1,3.8l0.1,1.7l0,0.2l0,0c0,0,0.4-0.3,1.1-0.8c1.1-0.8,2.5-1.7,4.4-2.8c1.1-0.7,1.8-1.1,1.9-1.4
		c0-0.1,0.1-0.1,0.1-0.2C144.4,72.1,144.3,70.9,143.8,69.8z M152.8,65.2c-0.5-1-1.2-1.6-2.1-2c-0.9-0.3-1.7-0.3-2.6,0.1
		c-1.1,0.6-1.8,2-2.1,4.3c-0.1,0.6-0.1,1.4-0.2,2.5c0,0.9-0.2,1.9-0.5,2.8l-0.1,0.3l0.4-0.2c0.5-0.2,1.9-0.8,4.3-1.9
		c0.6-0.3,1-0.4,1.3-0.6c1-0.5,1.6-1.2,1.9-2c0.1-0.5,0.2-1,0.1-1.7C153.2,66.4,153.1,65.8,152.8,65.2z"/>
	<path d="M159.1,70c-0.1,0-0.2,0-0.3-0.1c-0.1-0.2,0-0.4,0.1-0.6c0.3-0.8,0.5-1.7,0.6-2.9c0.1-0.9,0.1-2,0.1-3.3
		c-0.2-7-0.3-11.2-0.2-12.8c0-0.9,0.1-1.9,0.2-3.1c0.4-4.8,1.4-9.1,2.9-12.8c1-2.4,1.8-3.7,2.4-3.9c0.1,0,0.2,0,0.2,0.1
		c0.1,0.3-0.1,0.8-0.5,1.6c-0.6,1.2-0.9,1.8-0.9,1.9l-0.2,0.4c-0.9,2.2-1.5,4.6-1.9,7.2c-0.5,3.8-0.7,9.3-0.4,16.4l0,1.8
		c0,0,0,0.1,0,0.1c0,0,0.2-0.3,0.6-1c1.5-2.9,3.1-4.6,4.8-5.2c1.2-0.4,2.3-0.3,3.4,0.3c1,0.6,1.8,1.5,2.2,2.8c0.5,1.5,0.5,3.2-0.2,5
		c-0.6,1.6-1.4,2.9-2.5,3.9c-0.7,0.6-1.3,1-2,1.3c-1.2,0.4-2,0.3-2.4-0.4c-0.1-0.1-0.1-0.2-0.1-0.3c-0.2-0.5-0.1-1,0.2-1.5
		c0.2-0.5,0.6-0.8,1-0.9c0.4-0.1,0.8-0.1,1.2,0.1c0.3,0.2,0.6,0.3,0.7,0.3c0.2,0,0.4,0,0.7-0.1c1.1-0.4,1.8-1.1,2-2.3
		c0-0.2,0.1-0.4,0.1-0.7c0-0.7-0.1-1.3-0.3-1.9c-0.4-1.3-1.3-2.2-2.5-2.7c-0.7-0.3-1.4-0.4-2.1-0.3c-0.1,0-0.2,0.1-0.4,0.1
		c-1.4,0.5-2.5,1.9-3.4,4.2c-0.5,1.3-0.8,2.7-1,4.3c-0.2,1.9-0.6,3.3-1.3,4.3C159.5,69.7,159.3,70,159.1,70z"/>
	<path d="M158.2,58.3c-0.1,0-0.1,0-0.2-0.1c0-0.1,0-0.3,0.1-0.5c2.3-5.5,3.9-9.2,4.9-11.3c1.4-2.8,2.7-4.8,3.9-6
		c0.6-0.6,1.3-1,1.9-1.3l0.3-0.1c1.3-0.4,2.3-0.1,3.1,0.8c0.3,0.4,0.5,0.8,0.6,1.2c0.3,1,0.1,2.2-0.5,3.5c-0.5,1.1-1.2,1.9-2.1,2.4
		c-0.3,0.2-0.5,0.3-0.8,0.3c-0.7,0.2-1.4,0.1-1.9-0.4c-0.3-0.2-0.4-0.5-0.5-0.9c-0.2-0.7,0-1.5,0.5-2.4c0.3-0.5,0.6-0.8,0.9-0.9
		c0.1,0,0.2,0,0.2,0.1c0,0.1,0,0.3-0.1,0.6c-0.1,0.2-0.1,0.5-0.1,0.7c0.1,0.3,0.3,0.6,0.7,0.8c0.4,0.3,0.9,0.3,1.4,0.2
		c0.6-0.2,0.9-0.4,1-0.9c0.1-0.4,0.1-0.9-0.1-1.4c-0.2-0.9-0.7-1.5-1.5-1.8c-0.5-0.2-1.1-0.3-1.7-0.1c-1.5,0.4-3.1,2.3-4.5,5.6
		l-2.7,6.2l-1.4,3.2C159,57.5,158.5,58.2,158.2,58.3z"/>
	<path d="M198.4,48.2c2-0.3,3.4-0.9,4.4-1.9l0.8-0.9c0.2-0.2,0.4-0.3,0.6-0.3c0.1,0,0.2,0,0.3,0.2c0.1,0.4-0.3,1-1.2,1.9
		c-0.3,0.4-0.7,0.7-1,1c-1.4,1.3-3.1,2.1-5.1,2.4c-0.2,0-0.3,0-0.5,0.1c-0.9,0.1-2,0.2-3.4,0.2c-0.2,0-0.3,0-0.5,0
		c-2.2,0.8-4.1,1.9-5.4,3.3c-1.7,1.8-2.4,3.9-2.1,6.2c0.3,2,1.2,3.6,2.8,4.8c1.6,1.2,3.4,1.8,5.7,1.8c0.5,0,1.1,0,1.6-0.1
		c2.3-0.3,4.1-1.2,5.3-2.4c0.5-0.6,0.9-1.2,1.2-1.9c0.3-0.7,0.4-1.3,0.3-1.9c0-0.3-0.3-0.6-0.6-1c-0.4-0.4-0.6-0.7-0.7-0.9
		c0-0.1,0-0.2,0-0.2c-0.1-0.6,0.1-1.2,0.6-1.6c0.3-0.3,0.6-0.5,1-0.5c0.5-0.1,0.9,0.1,1.3,0.5c0.3,0.4,0.5,0.8,0.6,1.5
		c0.2,1.5-0.4,3.3-1.8,5.4c-0.3,0.4-0.5,0.7-0.8,1.1c-2.1,2.5-4.6,4.1-7.6,4.6c-0.1,0-0.3,0.1-0.4,0.1c-2.6,0.4-4.8,0-6.7-1.1
		c-1.7-1-2.8-2.3-3.4-4c-0.2-0.5-0.3-1-0.4-1.5c-0.2-1.5-0.1-2.9,0.4-4.3l0.1-0.4c0.8-2.2,2.3-4.2,4.3-6.1c0.5-0.5,1-0.9,1.5-1.2
		c0-0.1-1.1-0.1-3.2,0c-1.1,0-1.8,0.1-2.2,0.2c-1.5,0.2-2.6,0.7-3.3,1.4l-0.5,0.6c-0.1,0.1-0.3,0.2-0.5,0.2c-0.1,0-0.2,0-0.2-0.2
		c0-0.3,0.2-0.7,0.6-1.3c0.9-1.1,1.9-2,3.2-2.6c0.4-0.2,0.8-0.3,1.1-0.4c0.4-0.1,0.8-0.2,1.3-0.2c1.4-0.2,3.3-0.3,5.7-0.1
		c2.3,0.1,4,0.1,4.9,0.1C197.2,48.3,197.8,48.3,198.4,48.2z"/>
	<path d="M225.8,46.2c1.7,0,3.1,0,4.4-0.1c0.2,0,0.4,0,0.6,0l0,0l0.1-0.2c2.7-8.9,6.3-15.8,10.8-20.7c0.8-0.8,1.6-1.7,2.5-2.5
		c0.7-0.7,1.3-1,1.6-1c0.1,0,0.2,0.1,0.2,0.2c0,0.3-0.3,0.7-0.9,1.3c-2.7,2.4-5.1,5.5-7,9.2c-3.1,5.8-5.7,13.9-7.9,24.3
		c-0.1,0.6-0.6,1.2-1.3,1.7c-0.4,0.3-0.7,0.4-0.9,0.4c-0.1,0-0.2-0.1-0.2-0.2l0.8-3.6l-0.3,0.3c-2.4,2.3-4.5,3.5-6.1,3.5
		c-1.8,0-3-1.1-3.6-3.3c0-0.1,0-0.1,0-0.1l-0.2,0.2c-1.4,1.3-2.8,2.2-4.1,2.7c-0.7,0.3-1.3,0.4-1.9,0.4c-1.1,0-1.9-0.4-2.6-1.2
		c-0.7-0.8-1-1.8-1-3c0-1.7,0.8-3.4,2.5-5.1c0.5-0.5,1.1-1.1,1.9-1.8l-0.5,0c-3.1,0-5.4,0.6-6.8,1.9c-0.5,0.4-0.9,0.6-1.2,0.6
		c-0.1,0-0.2-0.1-0.2-0.2c0-0.3,0.3-0.8,0.9-1.3c1.2-1.1,2.8-1.9,4.8-2.4c1.5-0.4,3.1-0.6,4.7-0.6c1.1,0,2.9,0.2,5.4,0.4
		C222.2,46,224.1,46.1,225.8,46.2z M221.8,48.1c-0.4,0-2.1-0.2-5.1-0.5c-0.8-0.1-1.3-0.1-1.5-0.1c-0.6,0-1.1,0.2-1.6,0.5
		c-1.7,1.2-2.5,2.7-2.6,4.4c0,1.6,0.6,2.7,1.8,3.4c0.5,0.3,1,0.4,1.5,0.5c0.9,0,1.9-0.4,2.8-1.1c0.4-0.3,0.7-0.6,0.9-1
		c0.3-0.5,0.6-1.1,0.9-1.9c0.3-0.9,0.8-1.7,1.4-2.4c0.2-0.2,0.4-0.5,0.6-0.7c0.4-0.4,0.7-0.7,0.9-0.9
		C221.8,48.2,221.9,48.1,221.8,48.1C221.9,48.1,221.8,48.1,221.8,48.1z M220.9,52.5c0,1.5,0.5,2.6,1.7,3.4c0.6,0.3,1.1,0.5,1.5,0.5
		c0.7,0,1.3-0.2,2-0.8l0.4-0.3c1.4-1.1,2.3-2.4,2.7-3.9c0-0.2,0.1-0.5,0.3-1.1l0.4-1.7c0.1-0.4,0.2-0.6,0.2-0.6l0,0
		c-0.6,0.1-2.2,0.1-4.6,0.3c-1.3,0.1-2.3,0.2-2.8,0.4c-0.5,0.2-1,0.7-1.3,1.4C221.1,50.9,220.9,51.8,220.9,52.5z"/>
	<path d="M224.1,39.9c-0.2,0-0.3-0.1-0.3-0.4c0-0.2,0.4-0.9,1.1-2.3c0.7-1.3,1.1-2.1,1.4-2.2c0.2-0.1,0.4-0.2,0.6-0.2
		c0.3,0,0.5,0.2,0.6,0.5c0,0.1,0,0.2,0,0.2c0,0.4-0.5,1.1-1.3,2.2l-1.4,1.7c-0.2,0.3-0.4,0.4-0.5,0.4
		C224.2,39.9,224.2,39.9,224.1,39.9z"/>
	<path d="M231.7,48.8c0-0.3,0.3-0.6,0.9-1.1c1.1-0.8,2.3-1.3,3.7-1.4c0.4,0,0.8,0,1.2,0c0.7,0.1,1.2,0.2,1.5,0.5
		c0.2,0.2,0.4,0.5,0.5,0.9c0.2,0.5,0.2,0.9,0.1,1.5c-0.1,0.5-0.3,1.1-0.6,1.8c0,0,0.2-0.1,0.5-0.3c0.6-0.5,1.4-0.9,2.3-1.4
		c2-1,3.6-1.5,4.8-1.3c1.1,0.2,2.1,0.7,2.8,1.7c0.7,1,1,2.2,0.8,3.7c-0.2,1.3-0.9,2.6-2,3.9c-1.2,1.3-2.5,2.2-4,2.7
		c-1,0.4-1.9,0.5-2.8,0.3c-1.3-0.2-2-0.7-1.9-1.6c0-0.1,0-0.1,0-0.2c0.1-0.4,0.3-0.8,0.6-1.1c0.4-0.4,0.9-0.5,1.5-0.5
		c0.4,0.1,0.8,0.3,1,0.6c0.2,0.3,0.4,0.5,0.5,0.6c0.2,0.1,0.4,0.2,0.6,0.2c1.4,0.2,2.4-0.3,3.1-1.6c0.3-0.6,0.6-1.2,0.7-1.9
		c0.2-1.3-0.1-2.5-0.8-3.5c-0.6-0.8-1.4-1.3-2.4-1.4c-1.3-0.2-2.8,0.4-4.5,1.8c-1.2,1-2.3,2.3-3.3,3.8c-1.9,3.2-4.6,6.8-7.9,10.9
		c-4.9,5.9-9.8,11-14.9,15.3l-1.5,1.2c-0.7,0.6-2.1,1.7-4.1,3.1c-0.8,0.6-1.3,0.9-1.6,1.1c-0.5,0.3-0.9,0.5-1.2,0.4
		c-0.1,0-0.2-0.1-0.2-0.2c0-0.3,0.4-0.6,1-1.1l2.9-2.2l0.4-0.3c7.5-5.8,14.9-13.6,22-23.6c2.3-3.1,3.8-5.7,4.7-7.7
		c0.3-0.7,0.5-1.2,0.5-1.6c0.1-0.7,0-1.3-0.3-1.7c-0.3-0.4-0.6-0.6-1.1-0.6c-1-0.1-1.9,0-2.7,0.4c-0.4,0.2-0.7,0.3-0.8,0.3
		c-0.1,0-0.2,0-0.2,0C231.7,49,231.6,48.9,231.7,48.8z"/>
	<path d="M258.9,52.6c0.1-0.3,0.4-0.5,1.1-0.9c1.2-0.6,2.5-0.9,3.8-0.7c0.4,0,0.8,0.1,1.3,0.2c1.3,0.4,1.9,1.2,1.7,2.5
		c0,0.2-0.1,0.5-0.2,0.8c-0.1,0.4-0.3,0.8-0.6,1.2c0,0-0.1,0.1-0.1,0.1l0,0c0,0,0.4-0.1,1-0.4c2.6-1.2,4.6-1.6,6.1-1.1
		c1.2,0.4,2,1.3,2.3,2.6c0.2,0.8,0.2,1.6,0,2.5c3.2-1.8,5.7-2.4,7.5-1.8c0.8,0.3,1.5,0.9,1.9,1.7c0.4,0.8,0.5,1.8,0.4,2.8
		c0,0.4-0.1,0.7-0.3,1.1c-0.5,1.5-1.6,2.9-3.3,4c-1.4,0.9-2.8,1.4-4.2,1.6c-0.8,0.1-1.5,0-2.1-0.2c-1-0.3-1.5-0.8-1.6-1.5
		c0-0.2,0-0.4,0.1-0.7c0.2-0.6,0.6-1,1.3-1.2c0.4-0.1,0.8-0.1,1.1,0c0.4,0.1,0.7,0.4,0.9,0.8c0.2,0.3,0.3,0.6,0.4,0.7
		c0.1,0.1,0.3,0.2,0.5,0.3c0.8,0.3,1.5,0.2,2-0.2c1-0.7,1.6-1.6,2-2.8c0.3-0.9,0.3-1.9,0.1-2.8c-0.3-1.2-1-1.9-1.9-2.2
		c-1-0.3-2.2-0.1-3.6,0.8c-0.2,0.1-0.4,0.3-0.6,0.4c-0.6,0.4-1.3,1.1-2.2,2c-0.8,0.8-1.6,1.4-2.4,1.9l-0.4,0.2
		c-2.1,1.1-3.9,1.4-5.4,0.9c-1.3-0.5-1.9-1.2-1.6-2.1c0.1-0.3,0.3-0.6,0.7-0.9c0.5-0.4,1.1-0.5,1.7-0.3c0.4,0.1,0.7,0.4,0.9,0.8
		c0.2,0.3,0.3,0.6,0.4,0.7c0.1,0.1,0.3,0.2,0.5,0.3c0.5,0.2,1,0.2,1.5,0.1c0.4-0.1,0.8-0.4,1.3-1c0.6-0.6,1-1.3,1.2-2
		c0.5-1.6,0.4-3-0.5-4.1c-0.4-0.5-0.9-0.9-1.4-1.1c-1.3-0.4-3,0.1-5,1.7c-0.9,0.7-1.8,1.6-2.7,2.5c-2.6,2.8-5.9,5.9-9.9,9.3
		c-5.9,4.9-11.7,9-17.4,12.2l-1.7,0.9c-0.9,0.5-2.4,1.2-4.6,2.3c-0.9,0.4-1.5,0.7-1.8,0.8c-0.6,0.2-1,0.3-1.2,0.2
		c-0.1,0-0.2-0.1-0.1-0.3c0.1-0.3,0.5-0.6,1.2-0.9l3.3-1.6l0.4-0.2c8.5-4.3,17.2-10.6,26.1-19c2.8-2.7,4.8-4.9,6.1-6.7
		c0.4-0.6,0.7-1.1,0.8-1.5c0.2-0.7,0.2-1.3,0-1.8c-0.2-0.4-0.5-0.7-0.9-0.8c-1-0.3-1.9-0.4-2.7-0.1c-0.4,0.1-0.7,0.2-0.8,0.2
		c-0.1,0-0.2,0-0.2,0C258.9,52.8,258.9,52.8,258.9,52.6z"/>
	<path d="M269.5,48.9c0.1-0.3,0.5-0.5,1.2-0.7c0.5-0.1,0.8-0.2,1-0.1l1.4,0.9c0.6,0.4,1.3,0.7,2,1.1c0.2,0.1,1.8,0.8,4.7,2
		c4.6,2,7.2,3.1,7.8,3.4c0.7,0.3,1.6,0.5,2.6,0.7c0.2,0,0.4,0.1,0.4,0.1c0.1,0,0.1,0.1,0.1,0.2c-0.1,0.1-0.3,0.3-0.7,0.5
		c-0.6,0.3-1.2,0.4-1.7,0.3c-1.1-0.2-2.1-0.5-3.1-0.9c-0.8-0.3-3.3-1.4-7.6-3.2c-3.3-1.5-5.3-2.3-5.9-2.7c-0.3-0.2-0.7-0.4-1.1-0.7
		C269.9,49.3,269.5,49,269.5,48.9C269.5,48.9,269.5,48.9,269.5,48.9z"/>
	<path d="M262.1,74.5c-0.3-0.1-0.4-0.3-0.4-0.7c0-0.1,0-0.2,0.1-0.2c0.2-0.3,0.9-0.9,2.4-1.8l1.6-0.9c0.3-0.2,0.6-0.2,0.7-0.2
		c0.1,0.1,0.2,0.3,0.1,0.4c0,0.1-0.3,0.3-0.7,0.7l-1.7,1.5c-0.7,0.7-1.3,1-1.5,1.1C262.5,74.6,262.3,74.6,262.1,74.5z"/>
	<path d="M293.6,65c0.1-0.2,0.6-0.4,1.2-0.6c1.3-0.4,2.6-0.3,3.9,0.1c0.4,0.1,0.8,0.3,1.2,0.5c1.2,0.7,1.6,1.6,1.1,2.8
		c-0.1,0.2-0.2,0.5-0.3,0.7c-0.2,0.4-0.5,0.7-0.8,1c0,0-0.1,0.1-0.1,0.1l0,0c0,0,0.4-0.1,1-0.2c2.8-0.7,4.8-0.6,6.2,0.2
		c1.1,0.7,1.6,1.7,1.7,3c0,0.8-0.2,1.6-0.5,2.5c3.5-1.1,6.1-1.1,7.7-0.1c0.7,0.4,1.2,1.2,1.5,2.1c0.2,0.9,0.2,1.8-0.2,2.8
		c-0.1,0.3-0.3,0.7-0.5,1.1c-0.8,1.4-2.2,2.4-4.1,3.2c-1.5,0.6-3,0.8-4.4,0.7c-0.8-0.1-1.5-0.3-2-0.6c-0.9-0.5-1.3-1.1-1.3-1.8
		c0-0.2,0.1-0.4,0.2-0.6c0.3-0.5,0.8-0.8,1.5-0.9c0.4,0,0.8,0.1,1.1,0.2c0.4,0.2,0.6,0.6,0.7,1c0.1,0.4,0.2,0.6,0.3,0.7
		c0.1,0.2,0.2,0.3,0.4,0.4c0.7,0.4,1.4,0.5,2,0.2c1.1-0.5,2-1.2,2.6-2.3c0.5-0.8,0.7-1.7,0.7-2.7c-0.1-1.2-0.5-2.1-1.4-2.6
		c-0.9-0.6-2.1-0.5-3.7,0c-0.2,0.1-0.4,0.2-0.6,0.3c-0.7,0.3-1.5,0.8-2.6,1.5c-1,0.6-1.9,1.1-2.7,1.3l-0.5,0.1
		c-2.3,0.6-4.1,0.6-5.4-0.3c-1.2-0.8-1.6-1.6-1.1-2.4c0.2-0.3,0.5-0.5,0.9-0.7c0.6-0.3,1.1-0.2,1.7,0.1c0.4,0.2,0.6,0.6,0.7,1
		c0.1,0.4,0.2,0.6,0.2,0.7c0.1,0.2,0.2,0.3,0.4,0.4c0.5,0.3,1,0.4,1.5,0.4c0.4,0,0.9-0.3,1.5-0.7c0.7-0.5,1.2-1.1,1.6-1.7
		c0.9-1.4,1-2.8,0.4-4.1c-0.3-0.6-0.7-1.1-1.1-1.3c-1.2-0.7-2.9-0.5-5.3,0.6c-1.1,0.5-2.1,1.1-3.2,1.9c-3.1,2.2-7,4.5-11.7,6.9
		c-6.8,3.5-13.3,6.2-19.6,8.1l-1.9,0.6c-0.9,0.3-2.6,0.7-5,1.2c-0.9,0.2-1.6,0.3-1.9,0.4c-0.6,0.1-1,0.1-1.2-0.1
		c-0.1-0.1-0.1-0.2-0.1-0.3c0.1-0.2,0.6-0.4,1.4-0.6l3.5-0.8l0.5-0.1c9.2-2.3,19.1-6.7,29.5-13c3.3-2,5.8-3.7,7.3-5.2
		c0.5-0.5,0.9-0.9,1.1-1.3c0.4-0.6,0.5-1.2,0.4-1.7c-0.1-0.4-0.3-0.8-0.7-1c-0.9-0.5-1.7-0.8-2.6-0.7c-0.5,0-0.7,0-0.8,0
		c-0.1,0-0.1-0.1-0.2-0.1C293.6,65.2,293.5,65.1,293.6,65z"/>
	<path d="M317.5,79.5c0.2-0.2,0.6-0.4,1.4-0.5c1.4-0.1,2.7,0.1,4,0.7c0.3,0.2,0.7,0.4,1,0.6l0.3,0.3c0.6,0.5,0.8,1.2,0.6,2
		c-0.1,0.4-0.3,0.9-0.7,1.3c-0.2,0.3-0.7,0.7-1.3,1.2l0.5,0c1.5-0.2,2.9-0.2,4.3,0c1.5,0.2,2.6,0.6,3.3,1.2c1.1,0.9,1.6,2,1.5,3.4
		c0,0.3,0,0.5-0.1,0.8c-0.2,0.8-0.5,1.5-1,2.1c-1.1,1.4-2.7,2.3-4.8,2.7c-1,0.2-2,0.2-3,0.1c-1.4-0.1-2.5-0.5-3.4-1.3
		c-0.9-0.7-1.2-1.5-0.9-2.2c0.1-0.1,0.1-0.2,0.2-0.3c0.3-0.4,0.8-0.6,1.4-0.7c0.5,0,0.9,0.1,1.3,0.4c0.3,0.3,0.5,0.6,0.6,1.1
		c0,0.4,0.1,0.6,0.1,0.8c0.1,0.2,0.2,0.3,0.4,0.4c1.1,0.9,2.4,1,3.7,0.3c0.5-0.3,1-0.8,1.5-1.3c0.9-1.1,1.2-2.3,0.9-3.7
		c-0.1-0.3-0.1-0.6-0.3-0.8c-0.2-0.5-0.6-1-1-1.3c-0.7-0.5-1.6-0.8-2.8-0.9c-0.2,0-0.5,0-0.8,0c-1.3,0-2.8,0.4-4.5,1.1l-2.6,1.1
		c-0.3,0.1-0.6,0.2-0.9,0.3c-1.4,0.4-2.4,0.4-3,0.2c-0.1,0-0.1-0.1-0.2-0.1c-0.1-0.1-0.1-0.2-0.1-0.3c0.1-0.1,0.5-0.3,1.3-0.5
		c0.2,0,0.4-0.1,0.5-0.1c1.4-0.4,2.9-1.2,4.5-2.4c0.9-0.6,1.4-1.1,1.7-1.4c0.6-0.7,0.8-1.4,0.6-2.1c-0.1-0.3-0.2-0.5-0.5-0.7
		c-0.8-0.6-1.6-1-2.5-1c-0.5,0-0.8-0.1-0.9-0.1c-0.1,0-0.1-0.1-0.2-0.1C317.4,79.7,317.4,79.6,317.5,79.5z"/>
	<path d="M335.4,77.2c0.3-0.3,0.6-0.4,0.9-0.3c0.1,0,0.3,0.1,0.4,0.2c0.5,0.5,0.4,1.4-0.4,2.6c-0.3,0.4-0.5,0.8-0.8,1.1
		c-1.3,1.4-2.1,2-2.4,1.7c-0.2-0.1-0.2-0.4,0-0.7l1.1-1.7c0.4-0.7,0.7-1.4,0.9-2.1C335.1,77.6,335.2,77.4,335.4,77.2z M334.6,83.4
		c0.2-0.2,0.8-0.4,1.8-0.7c1.6-0.5,2.8-0.7,3.6-0.5c0.2,0.1,0.4,0.1,0.6,0.3c0.3,0.2,0.3,0.5,0.2,0.9c0,0.1-0.1,0.2-0.2,0.3
		c-0.2,0.3-0.8,0.4-1.8,0.4l-2.4,0c-0.4,0-0.7,0-1,0.1c-0.5,0-0.7,0-0.9-0.1C334.4,83.8,334.4,83.6,334.6,83.4z M335.2,82.3
		c-0.1-0.1-0.2-0.3-0.1-0.5c0-0.1,0.1-0.1,0.1-0.2l2.2-1.9c1.6-1.4,2.8-1.9,3.4-1.5c0,0,0.1,0,0.1,0.1c0.3,0.3,0.4,0.6,0.2,1
		c-0.1,0.2-0.2,0.3-0.3,0.5c-0.4,0.4-1.6,1.1-3.8,2c-0.6,0.3-1,0.4-1.2,0.5C335.6,82.4,335.4,82.4,335.2,82.3z"/>
	<path d="M338.9,96.1c-0.2-0.3-0.6-0.7-1.2-1.3c-1.9-1.8-3.8-2.8-5.8-3c-0.7,0-1.1-0.2-1.3-0.4c-0.1-0.1-0.1-0.2,0-0.3
		c0.2-0.2,0.8-0.3,1.7-0.3c1.6,0.1,3.2,0.5,4.9,1.4c1,0.5,2,1.2,2.9,2l0.5,0.5c0.6,0.6,1.5,1.7,2.6,3.1c1.4,1.7,2.9,3.4,4.5,5.1
		c0.6,0.6,1.2,1,1.8,1.2c0.2,0.1,0.4,0.2,0.5,0.3c0.1,0.1,0.1,0.2,0,0.3c-0.3,0.3-1,0.4-1.9,0.2c-0.8-0.2-1.4-0.4-2.1-0.9
		c-0.1-0.1-0.2-0.1-0.3-0.1c0,0-0.4,0.2-1.1,0.5l-2.7,1.3c-2.4,1.1-4.3,2-5.5,2.5c-7.3,2.9-16.1,4.4-26.6,4.6l-5.5,0
		c-3-0.1-5-0.1-5.9-0.2c-0.6-0.1-1-0.2-1.2-0.4c-0.1-0.1-0.1-0.2,0-0.3c0.2-0.2,0.9-0.3,2-0.3l6.1,0.2c4.2,0,7.8-0.1,10.9-0.3
		c7.4-0.6,13.9-2.2,19.5-4.7c1.5-0.6,2.2-1,2.3-1l-1.5-0.1c-0.8-0.1-1.6-0.2-2.4-0.4c-1.4-0.3-2.5-0.9-3.2-1.6
		c-0.8-0.8-1.3-1.8-1.2-3c0-1.1,0.5-2,1.3-2.8c0.8-0.8,1.9-1.3,3.4-1.7c1.3-0.3,2.8-0.3,4.4-0.1L338.9,96.1z M333.8,98.3
		c-0.8,0.8-1.2,1.8-1.1,2.8c0.1,0.9,0.4,1.7,1.2,2.4c0.6,0.6,1.4,0.9,2.6,1.1c1,0.2,2.1,0.1,3.2-0.1c0.8-0.2,1.7-0.5,2.8-1
		c0.8-0.4,1.6-0.6,2.2-0.8c0,0-0.3-0.3-0.8-0.8c-0.9-0.9-2-2.1-3.2-3.6c-0.1-0.1-0.2-0.3-0.3-0.4c-0.6-0.6-1.4-0.9-2.5-1.1
		c-1.3-0.2-2.4,0.1-3.4,0.8C334.3,97.9,334,98.1,333.8,98.3z"/>
	<path d="M351.2,110.2c0.2-0.2,0.7-0.2,1.4-0.1c1.3,0.2,2.5,0.9,3.6,1.8c0.3,0.3,0.5,0.5,0.8,0.8l0.2,0.3c0.5,0.7,0.5,1.4,0,2.1
		c-0.2,0.4-0.6,0.8-1,1.1c-0.4,0.3-0.8,0.5-1.1,0.6c0,0-0.1,0-0.1,0c0,0,0.3,0.1,1,0.2c2.5,0.5,4.2,1.2,5.2,2.3
		c0.1,0.1,0.2,0.2,0.3,0.4c0.7,1,0.8,2.1,0.3,3.4c-0.3,0.8-0.8,1.5-1.5,2.1c1.8,0.2,3.3,0.6,4.6,1.1c1.1,0.5,2,1.1,2.5,1.8
		c0.6,0.8,0.7,1.7,0.5,2.8c-0.2,0.8-0.6,1.6-1.3,2.3c-0.2,0.2-0.5,0.5-0.8,0.7c-1.4,1-3.1,1.4-5.1,1.3c-1.7-0.1-3.1-0.5-4.3-1.2
		c-0.7-0.4-1.2-0.9-1.6-1.4c-0.7-1-0.8-1.7-0.3-2.3c0.1-0.1,0.2-0.2,0.3-0.3c0.4-0.3,0.9-0.4,1.4-0.3c0.5,0.1,0.9,0.3,1.2,0.8
		c0.3,0.4,0.3,0.8,0.2,1.2c-0.1,0.4-0.1,0.6-0.1,0.7c0,0.2,0.1,0.4,0.2,0.6c0.4,0.6,0.8,0.9,1.3,1c0.2,0,0.3,0.1,0.5,0.1
		c1.2,0,2.2-0.3,3.2-1c1.2-0.8,1.8-1.8,2-3.1c0.1-0.3,0.1-0.7,0-0.9c-0.1-0.4-0.2-0.8-0.4-1.2c-0.8-1.2-2.6-1.7-5.3-1.4
		c-0.3,0-1,0.1-2.2,0.3c-0.5,0.1-1,0.1-1.5,0.1c-1.3,0-2.6-0.2-3.8-0.7c-1-0.4-1.7-0.9-2.3-1.5c-0.1-0.1-0.2-0.2-0.4-0.5
		c-0.7-1.1-0.8-1.9-0.2-2.5c0.1-0.1,0.1-0.1,0.2-0.2c0.4-0.3,0.9-0.4,1.5-0.3c0.5,0.1,0.9,0.3,1.1,0.7c0.2,0.4,0.3,0.8,0.2,1.3
		c-0.1,0.4-0.1,0.7-0.1,0.8c0,0.1,0.1,0.2,0.2,0.4c0,0,0,0.1,0.1,0.1c0.5,0.7,1.1,1,1.8,1c0.2,0,0.4,0,0.8-0.1
		c0.9-0.1,1.7-0.5,2.4-1c1-0.7,1.6-1.5,1.9-2.5c0.1-0.4,0.2-0.8,0.1-1.2c0-0.6-0.2-1.1-0.5-1.5c-0.8-1.1-2.5-1.6-5.3-1.5
		c-0.7,0-2,0.1-4,0.4c-0.9,0.1-1.5,0.1-1.9,0.1c-1.5,0-2.4-0.3-3-0.7c-0.1-0.1-0.1-0.1-0.2-0.2c-0.1-0.1-0.1-0.2,0-0.3
		c0.2-0.1,0.6-0.1,1.4-0.1c0.2,0,0.4,0,0.5,0c1.5,0,3.1-0.4,5-1c1-0.3,1.7-0.6,2.1-0.9c0.8-0.5,1.2-1.1,1.1-1.8
		c0-0.3-0.1-0.6-0.3-0.8c-0.6-0.8-1.3-1.4-2.1-1.7c-0.4-0.2-0.7-0.3-0.8-0.4c-0.1,0-0.1-0.1-0.1-0.2
		C351.1,110.3,351.1,110.2,351.2,110.2z"/>
	<path d="M370,121.7c-0.1-0.2,0-0.3,0.2-0.4c0.1-0.1,1-0.2,2.5-0.4c1.5-0.2,2.3-0.3,2.6-0.2c0.2,0.1,0.4,0.2,0.5,0.4
		c0.2,0.3,0.1,0.5-0.1,0.7c-0.1,0.1-0.1,0.1-0.2,0.1c-0.3,0.2-1.2,0.2-2.5,0.2l-2.2-0.1C370.3,121.9,370.1,121.9,370,121.7
		C370,121.8,370,121.7,370,121.7z"/>
	<path d="M362.2,145.3c-0.7-1.3-0.7-2.6-0.2-4c0.5-1.3,1.5-2.3,2.9-3c1.5-0.8,3.9-1.1,7.4-0.9c1.9,0.1,4,0.3,6.2,0.7l1.5,0.2
		c4.1,0.7,8.3,1.7,12.8,3c5.5,1.6,8.7,2.7,9.7,3.3c0.2,0.1,0.3,0.2,0.4,0.4c0.1,0.1,0,0.2-0.1,0.3c-0.2,0.1-0.7,0.1-1.4-0.1
		l-4.6-1.5l-4.8-1.5c-6.3-1.8-11.7-2.8-16.2-3.2c-3.9-0.3-6.6-0.1-8.2,0.8c-1.2,0.6-2.1,1.6-2.6,2.9c-0.4,0.9-0.4,1.8-0.2,2.6
		c0.1,0.3,0.2,0.6,0.3,0.8c0.4,0.7,0.9,1.3,1.5,1.9c0.4,0.3,0.7,0.5,1,0.6c0.7,0.2,1.5,0.1,2.4-0.2c0.1-0.1,0.3-0.1,0.4-0.2
		c0.5-0.3,0.9-0.7,1.2-1.3c0.2-0.4,0.4-0.7,0.5-0.9c0.1-0.1,0.3-0.2,0.4-0.3c0.3-0.2,0.7-0.2,1.2-0.2c0.6,0.1,1.1,0.4,1.4,1
		c0.3,0.5,0.2,1.1-0.2,1.6c-0.3,0.4-0.8,0.8-1.5,1.2c-1.4,0.7-2.9,0.9-4.8,0.5c-1.8-0.4-3.3-1.2-4.7-2.4c-0.4-0.4-0.8-0.8-1.1-1.2
		C362.6,146,362.4,145.7,362.2,145.3z"/>
	<path d="M375.2,147.7c0.3-0.1,0.7,0,1.4,0.3c1.2,0.5,2.2,1.4,3,2.5c0.2,0.4,0.4,0.7,0.6,1.1c0.5,1.3,0.2,2.2-0.8,2.9
		c-0.2,0.1-0.4,0.2-0.7,0.3c-0.4,0.2-0.8,0.3-1.3,0.3c-0.1,0-0.1,0-0.1,0l0,0c0,0,0.3,0.2,1,0.5c2.6,1.2,4.1,2.6,4.7,4
		c0.4,1.2,0.2,2.3-0.6,3.4c-0.5,0.6-1.1,1.2-2,1.6c3.4,1.4,5.5,2.9,6.1,4.7c0.3,0.8,0.2,1.7-0.2,2.6c-0.4,0.8-1,1.5-1.9,2.1
		c-0.3,0.2-0.7,0.4-1.1,0.5c-1.5,0.6-3.2,0.5-5.2-0.1c-1.6-0.5-2.8-1.2-3.9-2.2c-0.6-0.6-1-1.1-1.2-1.7c-0.4-1-0.3-1.7,0.1-2.2
		c0.1-0.2,0.3-0.3,0.6-0.4c0.6-0.2,1.2-0.1,1.7,0.3c0.3,0.2,0.6,0.5,0.7,0.8c0.2,0.4,0.1,0.8-0.1,1.2c-0.2,0.3-0.3,0.6-0.3,0.7
		c0,0.2,0,0.4,0.1,0.6c0.3,0.8,0.8,1.3,1.4,1.4c1.1,0.3,2.3,0.2,3.5-0.2c0.9-0.3,1.6-0.9,2.2-1.7c0.7-1,0.9-2,0.5-2.9
		c-0.4-1-1.3-1.8-2.9-2.3c-0.2-0.1-0.4-0.1-0.7-0.2c-0.7-0.2-1.7-0.3-3-0.4c-1.1-0.1-2.1-0.3-3-0.7l-0.4-0.2
		c-2.2-0.9-3.5-2.1-4.1-3.6c-0.4-1.4-0.2-2.2,0.6-2.6c0.3-0.1,0.7-0.1,1.1,0c0.6,0.2,1,0.5,1.3,1.1c0.2,0.4,0.1,0.8,0,1.2
		c-0.2,0.3-0.3,0.6-0.3,0.7c0,0.2,0,0.4,0.1,0.6c0.2,0.5,0.5,0.9,0.9,1.2c0.3,0.2,0.8,0.3,1.6,0.4c0.8,0,1.6-0.1,2.4-0.3
		c1.6-0.6,2.5-1.6,2.8-3c0.1-0.7,0.1-1.2,0-1.7c-0.5-1.3-2-2.2-4.5-2.8c-1.1-0.3-2.4-0.5-3.7-0.5c-3.8-0.2-8.3-0.9-13.4-1.9
		c-7.5-1.5-14.3-3.5-20.4-5.9l-1.8-0.7c-0.9-0.4-2.5-1.1-4.6-2.1c-0.9-0.4-1.5-0.7-1.7-0.9c-0.5-0.3-0.8-0.6-0.9-0.8
		c0-0.1,0-0.2,0.1-0.3c0.3-0.1,0.7,0,1.5,0.4l3.3,1.6l0.4,0.2c8.7,3.9,19.1,6.7,31.2,8.3c3.8,0.5,6.8,0.7,9,0.5
		c0.7-0.1,1.3-0.2,1.7-0.3c0.7-0.2,1.1-0.6,1.4-1.1c0.2-0.4,0.2-0.8,0-1.2c-0.4-1-0.9-1.7-1.6-2.2c-0.4-0.3-0.6-0.4-0.7-0.5
		c0-0.1-0.1-0.1-0.1-0.2C375.1,147.8,375.1,147.7,375.2,147.7z"/>
	<path d="M390.5,163.7c-0.1-0.2,0-0.3,0.3-0.4c0.1,0,1,0,2.5,0.2c1.5,0.2,2.3,0.3,2.6,0.5c0.2,0.1,0.3,0.3,0.4,0.5
		c0.1,0.3,0,0.5-0.3,0.7c-0.1,0-0.1,0.1-0.2,0.1c-0.3,0.1-1.2-0.1-2.5-0.5l-2.1-0.7c-0.3-0.1-0.5-0.2-0.6-0.3
		C390.6,163.8,390.5,163.7,390.5,163.7z"/>
	<path d="M384.5,173.7c0.3-0.1,0.7,0.1,1.4,0.4c1.2,0.7,2.1,1.7,2.7,3c0.2,0.3,0.3,0.7,0.4,1l0.1,0.4c0.2,0.8,0,1.4-0.7,2
		c-0.4,0.3-0.8,0.5-1.3,0.6c-0.9,0.2-2.2,0.2-4.1,0.1c-2.5-0.2-4.4-0.7-5.8-1.5c-0.9-0.4-1.4-0.9-1.6-1.3c0-0.1-0.1-0.1-0.1-0.2
		c0-0.1,0-0.2,0.1-0.3c0.2,0,0.6,0.1,1.3,0.4c0.2,0.1,0.4,0.2,0.5,0.2c1.4,0.5,3.1,0.7,5.1,0.8c1,0,1.8,0,2.3-0.1
		c0.9-0.2,1.5-0.7,1.7-1.3c0.1-0.3,0.1-0.6,0-0.9c-0.3-1-0.7-1.8-1.4-2.3c-0.4-0.3-0.6-0.5-0.6-0.6c0-0.1-0.1-0.1-0.1-0.2
		C384.4,173.8,384.4,173.7,384.5,173.7z"/>
	<path d="M391.5,176c0-0.2,0-0.3,0.2-0.4l0.1,0c0.2,0,1.8,0.6,4.8,1.9c2.7,1.2,4.4,2,5.1,2.4c0.2,0.2,0.4,0.3,0.4,0.6
		c0.1,0.3,0,0.6-0.4,0.7c-0.1,0-0.1,0-0.1,0c-0.3,0.1-0.7-0.1-1.3-0.4l-2.2-1.1c-2.3-1.2-4.2-2.2-5.9-3.3c-0.4-0.2-0.6-0.4-0.7-0.5
		C391.5,176.1,391.5,176,391.5,176z"/>
	<path d="M381.4,195.3c-0.1-0.7,0.2-1.2,0.9-1.7c0.4-0.3,1-0.4,1.6-0.5c1.8-0.3,3.6,0.3,5.3,1.5c1.4,1,2.5,2.3,3.2,3.9
		c0.3,0.6,0.5,1.2,0.6,1.8l0.1,0.5c0.2,1.3-0.2,2.5-1,3.5c-0.9,1.1-2.1,1.7-3.5,2l-0.2,0c-2.5,0.3-6.3-0.8-11.7-3.5
		c-5-2.5-10.4-5.9-16.2-10.2c-2-1.5-3.9-3-5.8-4.5c-0.8-0.6-1.2-1.1-1.2-1.5c0-0.1,0-0.2,0.2-0.2c0.3,0,0.9,0.3,1.7,1
		c5.2,4.2,10.3,7.9,15.4,10.9c5.4,3.2,9.7,5.1,12.9,5.7c0.9,0.2,1.7,0.2,2.4,0.1c1.1-0.2,2.2-0.6,3-1.4c0.9-0.9,1.4-1.9,1.5-3.2
		c0-0.1,0-0.3-0.1-0.5c-0.3-2.2-1.2-3.4-2.8-3.7c-0.4-0.1-0.9-0.1-1.4,0c-0.6,0.1-1.1,0.4-1.6,0.8c-0.3,0.4-0.6,0.6-0.7,0.7
		c-0.2,0.1-0.4,0.2-0.6,0.2c-0.7,0.1-1.2-0.1-1.7-0.7C381.6,195.9,381.5,195.6,381.4,195.3z"/>
	<path d="M403.5,200c0.9-0.1,1.8,0.3,2.8,1.1c1,0.8,1.7,1.7,2,2.7c0.1,0.3,0.2,0.6,0.2,0.9l0,0c0.1,1-0.2,1.8-0.9,2.5
		c-0.5,0.5-1.1,0.7-1.8,0.8c-2,0.2-4.6-1.4-7.5-4.8c-0.9-1-1.8-2.1-2.7-3.5l-5.1-7.1c-0.1-0.1-0.1-0.2-0.1-0.3c0-0.1,0-0.2,0.1-0.2
		c0.2,0,0.6,0.2,1,0.5c0.2,0.2,0.3,0.3,0.4,0.5l5.7,7.9c1.4,1.9,2.5,3.2,3.5,3.9c1.1,0.9,2.2,1.3,3.2,1.3c0.8-0.1,1.4-0.4,1.9-1.1
		c0.4-0.5,0.5-1.1,0.5-1.8c-0.1-0.6-0.2-1-0.4-1.3c-0.1-0.1-0.1-0.1-0.2-0.1c-0.3-0.1-0.6-0.2-1-0.1c-0.7,0.1-1.2,0.4-1.4,1.1
		c-0.1,0.2-0.1,0.4-0.1,0.5c0,0,0,0.1,0,0.1c0,0,0.1,0.2,0.3,0.4c0.1,0.2,0.2,0.3,0.2,0.4c0,0.1,0,0.2-0.1,0.2
		c-0.3,0-0.7-0.2-1.2-0.7c-0.6-0.6-1-1.2-1-1.8c-0.1-0.7,0.2-1.2,0.8-1.6C402.8,200.2,403.1,200,403.5,200z"/>
</g>
<g>
	<path d="M52.6,232c0.3,0,0.6,0.1,1,0.3c0.4,0.3,0.6,0.6,0.6,1.1c0.1,0.7-0.2,1.1-0.7,1.4c-0.2,0.1-0.4,0.2-0.7,0.2
		c-0.6,0.1-1.1-0.2-1.4-0.7c-0.1-0.2-0.2-0.4-0.2-0.7c-0.1-0.6,0.2-1.1,0.6-1.4C52.1,232.1,52.3,232.1,52.6,232z M60.4,233.9
		c0.6-0.1,1,0.2,1.4,0.6c0.1,0.2,0.2,0.4,0.2,0.6c0.1,0.8-0.2,1.3-0.8,1.6c-0.2,0.1-0.3,0.1-0.5,0.1c-0.6,0.1-1-0.1-1.4-0.6
		c-0.1-0.2-0.2-0.5-0.3-0.8c-0.1-0.6,0.2-1,0.6-1.4C60,234,60.2,233.9,60.4,233.9z"/>
	<path d="M57.3,240.8c0.3,0,0.6,0,1,0.2c0.4,0.2,0.6,0.6,0.7,1c0.1,0.6-0.1,1.1-0.6,1.4c-0.2,0.1-0.4,0.2-0.7,0.3
		c-0.6,0.1-1-0.1-1.4-0.5c-0.1-0.2-0.2-0.5-0.3-0.7c-0.1-0.6,0.1-1.1,0.6-1.4C56.9,241,57.1,240.9,57.3,240.8z"/>
	<path d="M54.4,262.4c-0.4-1.5-0.3-2.9,0.3-4.1c0.6-1.2,1.5-2,2.8-2.3c1.6-0.5,3.4-0.1,5.2,1.2c1,0.7,1.8,1.5,2.4,2.4
		c0,0.1,0.1,0.1,0.1,0.2c0.3,0.5,0.5,0.9,0.6,1.4c0.3,1.1,0.2,2.2-0.3,3.3c-0.4,0.8-1.3,2-2.5,3.3l-0.5,0.5l0.3,0.1
		c2.4,0.6,5.3,0.9,8.9,0.9l7.2-0.1c3.7,0,6.8,0.4,9.3,1.1c1.3,0.4,2.6,0.8,3.8,1.4c2,1,3.1,1.7,3.3,2.3c0,0.2,0,0.2-0.1,0.3
		c-0.2,0.1-0.7-0.1-1.3-0.4c-1-0.5-1.7-0.9-2-1c-0.5-0.2-1-0.4-1.4-0.5c-2.4-0.7-5.2-1.1-8.6-1.1c-0.4,0-2.3,0-5.8,0.1
		c-1.8,0-3.4,0-4.7,0c-3.2-0.1-5.9-0.5-8.1-1.2c-0.5-0.2-1-0.3-1.5-0.5c-0.1-0.1-0.2-0.1-0.2-0.1l0,0l-0.5,0.6c-0.6,0.9-1,1.7-1,2.5
		c-0.1,0.5,0,1,0.1,1.5c0.4,1.5,1.3,2.8,2.5,3.7l1.3,0.9c0.3,0.2,0.4,0.4,0.5,0.6c0,0.1,0,0.2-0.1,0.3c-0.4,0.1-1.1-0.2-2-0.8
		c-1.4-0.9-2.6-2-3.6-3.4c-0.5-0.7-0.9-1.4-1.2-2.1c0-0.1-0.1-0.3-0.2-0.6c-0.5-1.6-0.1-3.1,1-4.6c0.1-0.1,0.2-0.2,0.2-0.3
		c0,0-0.2-0.2-0.7-0.5C56.1,265.8,55,264.2,54.4,262.4z M60.2,265.9c1.4-1.5,2.2-2.7,2.6-3.5c0.3-0.8,0.4-1.6,0.1-2.5l-0.1-0.5
		c-0.3-0.8-0.7-1.3-1-1.5c-0.4-0.3-1-0.3-1.8-0.1c-0.7,0.2-1.3,0.6-1.8,1.2c-0.8,0.9-1.1,2-1.1,3.3c0,0.5,0.1,1,0.2,1.4
		c0.4,1.2,1,2.3,1.9,3c0.1,0.1,0.1,0.1,0.2,0.1L60.2,265.9z"/>
	<path d="M67.9,272.4c0.3-0.1,0.7,0,1.4,0.2c1.3,0.5,2.4,1.3,3.2,2.5c0.3,0.3,0.5,0.7,0.7,1.1c0.3,0.7,0.4,1.2,0.3,1.6
		c-0.1,0.3-0.2,0.6-0.5,0.9c-0.3,0.4-0.7,0.7-1.2,0.9c-0.5,0.2-1.1,0.4-1.8,0.4c0,0,0.2,0.1,0.6,0.3c0.7,0.3,1.6,0.7,2.5,1.3
		c2,1.2,3.2,2.4,3.8,3.6c0.5,1.1,0.5,2.2,0,3.4c-0.5,1.2-1.4,2.1-2.8,2.7c-1.2,0.5-2.7,0.6-4.5,0.3c-1.8-0.4-3.3-1-4.5-2.1
		c-0.8-0.7-1.5-1.5-1.8-2.4c-0.6-1.3-0.4-2.1,0.4-2.6c0,0,0.1-0.1,0.2-0.1c0.4-0.2,0.8-0.2,1.3-0.1c0.6,0.2,1,0.5,1.2,1.1
		c0.2,0.4,0.2,0.8,0,1.3c-0.2,0.4-0.2,0.6-0.2,0.7c0,0.2,0,0.4,0.1,0.7c0.6,1.3,1.6,2,3.1,2c0.7,0,1.4-0.1,2-0.4
		c1.3-0.6,2.1-1.4,2.6-2.6c0.4-1,0.4-1.9,0-2.9c-0.6-1.3-1.9-2.3-4-3.1c-1.6-0.6-3.3-0.8-5.1-0.9c-3.8,0-8.4-0.5-13.8-1.3
		c-7.8-1.2-15-2.9-21.4-5.1l-1.9-0.7c-1-0.3-2.6-1-4.9-2c-0.9-0.4-1.5-0.7-1.8-0.8c-0.5-0.3-0.9-0.6-1-0.8c-0.1-0.1,0-0.2,0.1-0.3
		c0.3-0.1,0.8,0,1.6,0.3l3.5,1.5l0.4,0.2c9.2,3.6,20,6,32.6,7.1c4,0.3,7.1,0.4,9.3,0c0.7-0.1,1.3-0.2,1.7-0.4
		c0.7-0.3,1.1-0.7,1.3-1.2c0.2-0.4,0.2-0.8,0-1.3c-0.4-1-1-1.7-1.8-2.2c-0.4-0.3-0.6-0.4-0.7-0.5c0-0.1-0.1-0.1-0.1-0.2
		C67.8,272.5,67.8,272.4,67.9,272.4z"/>
	<path d="M84.2,277.5c0.4-0.2,0.7-0.2,1,0c0.1,0.1,0.2,0.2,0.3,0.4c0.3,0.7-0.1,1.5-1.4,2.4c-0.4,0.3-0.8,0.6-1.2,0.7
		c-1.7,0.9-2.7,1.1-2.9,0.7c-0.1-0.2,0-0.4,0.3-0.7l1.6-1.2c0.6-0.5,1.2-1.1,1.7-1.7C83.8,277.8,84,277.6,84.2,277.5z M81.1,283.1
		c0.2-0.1,0.9-0.1,2,0c1.7,0.2,3,0.5,3.7,0.9c0.2,0.1,0.4,0.3,0.4,0.5c0.2,0.3,0.1,0.7-0.1,0.9c-0.1,0.1-0.2,0.2-0.3,0.2
		c-0.3,0.2-1,0.1-1.9-0.3l-2.3-0.9c-0.3-0.1-0.7-0.2-1-0.3c-0.4-0.2-0.7-0.3-0.8-0.4C80.8,283.4,80.9,283.3,81.1,283.1z M82.1,282.3
		c-0.1-0.2-0.1-0.3,0.1-0.5c0,0,0.1-0.1,0.2-0.1l2.8-1c2.1-0.7,3.4-0.7,3.8-0.1c0,0,0,0.1,0.1,0.1c0.2,0.4,0.1,0.7-0.2,1.1
		c-0.1,0.1-0.3,0.3-0.5,0.3c-0.5,0.2-1.9,0.4-4.4,0.5c-0.7,0-1.1,0-1.3,0C82.4,282.6,82.2,282.5,82.1,282.3z"/>
	<path d="M77.9,296.2c0.2-0.2,0.7-0.2,1.5,0c1.4,0.3,2.6,0.9,3.7,2c0.3,0.3,0.5,0.6,0.8,0.9l0.2,0.4c0.5,0.7,0.5,1.4,0.1,2.2
		c-0.2,0.4-0.6,0.8-1.1,1.1c-0.3,0.2-0.7,0.4-1.3,0.6c0,0,0.2,0,0.5,0.1c3.3,0.6,5.4,1.7,6.4,3.1c0.8,1.2,0.9,2.5,0.2,3.9
		c-0.4,0.7-0.8,1.2-1.2,1.6c0,0,0,0-0.1,0.1c0.2,0,0.8,0.2,1.8,0.4c1.8,0.4,3.2,0.9,4.1,1.6c0.5,0.4,0.9,0.8,1.2,1.2
		c0.6,0.9,0.8,1.8,0.6,2.9c-0.2,1.1-0.9,2-1.9,2.7c-1.5,1-3.5,1.3-6.1,0.9c-0.4-0.1-0.8-0.1-1.2-0.2l0.3,0.4c1.6,2.2,3,3.5,4.3,4
		l0.9,0.3c0.2,0.1,0.3,0.2,0.4,0.4l0,0c0.1,0.1,0,0.2-0.1,0.3c-0.3,0.2-0.9,0.2-1.8-0.1c-1.5-0.4-3-1.3-4.4-2.6
		c-0.3-0.3-0.7-0.7-1-1c-0.4-0.5-1-1.2-1.6-2.1c-0.7-1-1.7-2.7-3.2-5.1c-1-1.7-1.9-3.1-2.7-4.3c-1.9-2.7-4-5.3-6.3-7.6
		c-0.1-0.1-0.2-0.2-0.2-0.3c-0.1-0.1-0.1-0.2,0-0.3c0.2-0.1,0.6-0.2,1.2-0.1c0.3,0.1,0.6,0.1,0.7,0.1c1.5,0,3.2-0.3,5.1-0.9
		c1-0.3,1.8-0.6,2.2-0.9c0.8-0.5,1.2-1.2,1.2-1.9c0-0.3-0.1-0.6-0.3-0.9c-0.6-0.9-1.3-1.5-2.1-1.8c-0.5-0.2-0.7-0.3-0.8-0.4
		c-0.1,0-0.1-0.1-0.1-0.2C77.8,296.4,77.8,296.3,77.9,296.2z M84.4,311.1c0.5-0.3,0.9-0.8,1.3-1.5c0.7-1.3,0.7-2.5-0.1-3.6
		c-0.8-1.2-2.6-1.7-5.5-1.7c-0.7,0-2.1,0.1-4.3,0.3c-0.7,0.1-1.3,0.1-1.7,0.1c0.5,0.4,1.5,1.6,3.1,3.6c1.6,2,2.6,3.2,3.1,3.6
		C82,312.2,83.2,311.9,84.4,311.1z M80.9,313.1c0.4,0.6,1.3,2.1,2.7,4.4c0.4,0.7,0.7,1.1,0.9,1.4c0.7,1,1.5,1.6,2.4,1.7
		c1.2,0.2,2.3-0.1,3.3-0.6l0.3-0.2c1-0.7,1.6-1.6,1.7-2.8c0.1-0.7,0-1.3-0.3-1.9c-0.1-0.1-0.2-0.3-0.3-0.4c-0.6-0.9-1.7-1.4-3.4-1.5
		c-0.6,0-1.7,0-3.5,0c-1.5,0.1-2.7,0-3.5-0.1C81,313.1,80.9,313.1,80.9,313.1L80.9,313.1z"/>
	<path d="M93.4,318.9c0.2-0.2,0.7-0.3,1.4-0.2c1.4,0,2.7,0.5,3.9,1.3c0.3,0.2,0.7,0.5,1,0.8c0.5,0.5,0.8,1,0.8,1.4
		c0,0.3,0,0.6-0.2,1c-0.2,0.5-0.5,0.9-0.9,1.3c-0.4,0.4-1,0.7-1.6,1c0,0,0.2,0,0.6,0.1c0.8,0,1.7,0.2,2.8,0.4
		c2.3,0.5,3.8,1.2,4.7,2.2c0.8,0.9,1.2,2,1.1,3.2c-0.1,1.3-0.7,2.4-1.8,3.4c-1,0.9-2.4,1.5-4.2,1.7c-1.8,0.2-3.4,0.1-5-0.5
		c-1-0.4-1.9-0.9-2.5-1.6c-0.9-1-1.1-1.9-0.5-2.6c0,0,0.1-0.1,0.1-0.1c0.3-0.3,0.7-0.5,1.2-0.5c0.6,0,1.1,0.2,1.5,0.6
		c0.3,0.3,0.5,0.7,0.4,1.2c0,0.4,0,0.6,0,0.8c0.1,0.2,0.2,0.4,0.3,0.6c1,1.1,2.2,1.3,3.5,0.9c0.7-0.2,1.2-0.6,1.8-1.1
		c1-0.9,1.6-2,1.6-3.3c0-1-0.3-1.9-1-2.7c-1-1-2.5-1.6-4.7-1.6c-1.7,0-3.4,0.3-5.1,0.9c-3.6,1.2-8.1,2.3-13.5,3.3
		c-7.8,1.4-15.1,2.2-21.9,2.2l-2,0c-1,0-2.8-0.1-5.3-0.3c-1-0.1-1.7-0.1-2-0.2c-0.6-0.1-1-0.2-1.2-0.4c-0.1-0.1-0.1-0.2,0-0.3
		c0.2-0.2,0.7-0.3,1.6-0.2l3.8,0.3l0.5,0c9.8,0.5,20.9-0.9,33.1-3.9c3.9-1,6.8-2,8.8-3c0.7-0.3,1.2-0.6,1.5-0.9
		c0.5-0.5,0.8-1,0.9-1.6c0-0.4-0.1-0.9-0.5-1.2c-0.7-0.8-1.5-1.3-2.4-1.5c-0.5-0.1-0.7-0.2-0.8-0.2c-0.1,0-0.1-0.1-0.2-0.2
		C93.3,319.1,93.3,319,93.4,318.9z"/>
	<path d="M110.4,318.5c0.3-0.3,0.6-0.4,0.9-0.3c0.1,0,0.3,0.1,0.4,0.2c0.5,0.5,0.3,1.4-0.5,2.7c-0.3,0.4-0.6,0.8-0.9,1.1
		c-1.4,1.4-2.2,1.9-2.6,1.6c-0.2-0.2-0.1-0.4,0.1-0.7l1.2-1.7c0.4-0.7,0.8-1.4,1-2.1C110.2,318.9,110.3,318.6,110.4,318.5z
		 M109.4,324.8c0.2-0.2,0.8-0.4,1.9-0.7c1.7-0.4,3-0.5,3.8-0.3c0.2,0.1,0.4,0.2,0.6,0.3c0.3,0.3,0.3,0.6,0.2,0.9
		c0,0.1-0.1,0.2-0.2,0.3c-0.3,0.3-0.9,0.4-1.9,0.3l-2.5-0.1c-0.4,0-0.7,0-1,0c-0.5,0-0.8-0.1-0.9-0.1
		C109.2,325.2,109.2,325,109.4,324.8z M110.1,323.7c-0.1-0.1-0.2-0.3-0.1-0.5c0-0.1,0.1-0.1,0.1-0.2l2.3-1.9
		c1.8-1.4,2.9-1.8,3.5-1.3c0,0,0.1,0,0.1,0.1c0.3,0.3,0.4,0.6,0.2,1.1c-0.1,0.2-0.2,0.3-0.3,0.5c-0.4,0.4-1.7,1-4,1.9
		c-0.6,0.2-1.1,0.4-1.2,0.5C110.5,323.9,110.3,323.9,110.1,323.7z"/>
	<path d="M83.1,329.6c0.2-0.2,0.7-0.3,1.4-0.2c0.5,0,0.8,0.1,1,0.3c0,0,0.1,0.2,0.2,0.5c0.5,0.8,1.2,1.7,2.2,2.6
		c0.1,0.1,0.1,0.1,0.2,0.2c0.5,0.5,1,1,1.6,1.6c1.8,1.8,2.9,2.8,3.3,3.1c0.3,0.2,0.6,0.4,1,0.6c0.2,0.1,0.4,0.2,0.4,0.2
		c0.1,0.1,0.1,0.2,0,0.2c-0.2,0.2-0.6,0.3-1.2,0.2c-0.8-0.1-1.7-0.4-2.6-1.1c-0.3-0.2-0.9-0.7-1.6-1.5c-0.3-0.3-0.8-0.8-1.7-1.7
		c-0.6-0.6-1.1-1.1-1.6-1.6l-1.4-1.3c-0.6-0.7-1-1.3-1.3-1.8C83,329.8,83,329.7,83.1,329.6z"/>
	<path d="M105.5,332.6c0.2-0.2,0.7-0.4,1.4-0.4c1.4-0.1,2.8,0.2,4.1,1c0.3,0.2,0.7,0.4,1,0.6l0.3,0.3c0.6,0.6,0.8,1.3,0.6,2.1
		c-0.1,0.5-0.4,0.9-0.8,1.3c-0.3,0.3-0.7,0.7-1.4,1.2l0.5,0c1.5-0.1,3,0,4.5,0.3c1.5,0.3,2.7,0.8,3.4,1.4c1.1,0.9,1.6,2.1,1.5,3.6
		c0,0.3-0.1,0.5-0.1,0.8c-0.2,0.8-0.5,1.5-1.1,2.1c-1.2,1.4-2.9,2.3-5.1,2.6c-1,0.1-2.1,0.1-3.1,0c-1.4-0.2-2.6-0.7-3.5-1.5
		c-0.9-0.8-1.2-1.6-0.9-2.3c0.1-0.1,0.1-0.2,0.2-0.3c0.4-0.4,0.8-0.6,1.4-0.6c0.5,0,1,0.2,1.3,0.5c0.3,0.3,0.5,0.7,0.6,1.1
		c0,0.4,0.1,0.7,0.1,0.8c0.1,0.2,0.2,0.3,0.4,0.4c1.2,1,2.4,1.2,3.8,0.5c0.6-0.3,1.1-0.7,1.6-1.3c1-1.1,1.3-2.3,1.1-3.7
		c-0.1-0.3-0.1-0.6-0.2-0.9c-0.2-0.6-0.6-1-1-1.4c-0.7-0.6-1.6-0.9-2.9-1c-0.2,0-0.5,0-0.8,0c-1.3,0-2.9,0.3-4.7,0.9l-2.7,1
		c-0.4,0.1-0.7,0.2-1,0.3c-1.5,0.3-2.5,0.3-3.1,0c-0.1,0-0.1-0.1-0.2-0.1c-0.1-0.1-0.1-0.2-0.1-0.3c0.1-0.1,0.6-0.3,1.3-0.4
		c0.3,0,0.4-0.1,0.5-0.1c1.5-0.4,3-1.1,4.8-2.2c0.9-0.6,1.5-1,1.8-1.4c0.6-0.7,0.9-1.4,0.7-2.1c-0.1-0.3-0.2-0.6-0.5-0.8
		c-0.8-0.7-1.6-1.1-2.5-1.2c-0.5-0.1-0.8-0.1-0.9-0.2c-0.1,0-0.1-0.1-0.2-0.1C105.4,332.8,105.4,332.7,105.5,332.6z"/>
	<path d="M117.4,335.1c-0.1-0.1-0.2-0.2-0.1-0.3c0,0,0-0.1,0-0.1c0.1-0.1,0.3-0.2,0.6-0.2l1.1-0.1c2-0.2,4.6-0.3,7.6-0.3
		c2.3,0,3.6,0,3.8,0.1c0.1,0,0.1,0.1,0.2,0.1c0.3,0.2,0.4,0.5,0.2,0.8c0,0,0,0.1-0.1,0.1c-0.2,0.2-0.5,0.3-1,0.3c-0.2,0-1.1,0-2.8,0
		c-4,0-6.9-0.1-8.6-0.3C117.9,335.3,117.5,335.2,117.4,335.1z"/>
	<path d="M108.3,349c-0.4-0.3-0.7-0.5-0.7-0.6c0,0,0-0.1,0.1-0.1c0.2-0.3,0.8-0.5,1.6-0.5c0.4,0,0.8,0,1,0.1
		c0.1,0.1,0.4,0.2,0.7,0.5c1.8,1.3,3.8,2.8,6,4.7c1,0.8,1.6,1.4,2,1.8c1.4,1.4,2.1,3,2.1,4.8c0,1.2-0.3,2.3-1,3.3
		c-0.7,1-1.8,1.7-3.2,2.1c-1.6,0.5-3.1,0.5-4.5,0.1c-0.7-0.2-1.3-0.5-1.9-0.9c-0.9-0.7-1.6-1.5-2-2.6c-0.5-1.2-0.4-2.3,0.1-3.3
		c0-0.1,0.1-0.2,0.1-0.2c0.4-0.6,1.1-1,2.1-1.2c0.9-0.2,1.5-0.2,2,0.1c0.2,0.1,0.2,0.2,0.1,0.3c-0.1,0.2-0.3,0.3-0.6,0.4
		c-0.3,0.1-0.6,0.2-0.8,0.5c-0.4,0.6-0.5,1.3-0.4,2.3c0.2,1.2,0.8,2.2,1.8,3c0.1,0,0.1,0.1,0.2,0.1c1.6,1.2,3,0.9,4.2-0.6
		c0,0,0,0,0-0.1c0.7-0.9,0.9-2.1,0.8-3.4c-0.1-1.5-0.8-2.8-1.9-4c-0.8-0.9-2.8-2.5-5.9-4.9C109.5,349.8,108.8,349.3,108.3,349z"/>
	<path d="M137.6,366.7c-0.6-0.3-0.9-0.9-0.9-1.8c0-0.5,0.2-1.1,0.5-1.7c0.9-1.7,2.4-2.9,4.5-3.5c1.7-0.5,3.4-0.7,5.2-0.3
		c0.7,0.1,1.3,0.3,1.9,0.6l0.5,0.2c1.2,0.6,2,1.6,2.4,3c0.4,1.4,0.2,2.7-0.4,4.1l-0.1,0.2c-1.2,2.3-4.5,4.8-9.9,7.7
		c-5.1,2.7-11.2,5.1-18.3,7.4c-2.4,0.8-4.8,1.5-7.3,2.1c-1,0.3-1.7,0.3-2,0.1c-0.1-0.1-0.2-0.2-0.1-0.3c0.1-0.3,0.8-0.6,1.9-0.9
		c6.7-1.8,12.8-3.9,18.5-6.4c6-2.6,10.2-5.1,12.5-7.4c0.7-0.7,1.2-1.3,1.5-1.9c0.5-1.1,0.7-2.2,0.6-3.4c-0.2-1.3-0.8-2.4-1.9-3.1
		c-0.1-0.1-0.3-0.2-0.5-0.3c-2-1-3.7-1-4.9,0.1c-0.3,0.3-0.6,0.7-0.9,1.1c-0.3,0.6-0.4,1.2-0.2,1.8c0.1,0.5,0.2,0.8,0.1,1
		c0,0.2-0.1,0.4-0.2,0.6c-0.3,0.6-0.8,1-1.6,1C138.3,367,138,366.9,137.6,366.7z"/>
	<path d="M152,355.3c-0.1-0.1-0.2-0.3-0.1-0.5c0.8-0.8,1.6-1.6,2.4-2.4c0.8-0.7,1.3-1.1,1.6-1.2c0.2-0.1,0.4-0.1,0.5,0
		c0.3,0.1,0.4,0.4,0.4,0.7c0,0.1,0,0.2-0.1,0.3c-0.1,0.2-0.5,0.6-1.3,1.1l-0.5,0.3l-1.6,1l-0.9,0.6
		C152.3,355.3,152.2,355.3,152,355.3z"/>
	<path d="M124.8,403.3c-0.1,0-0.2-0.1-0.2-0.2c0.1-0.3,0.7-0.7,1.6-1.2l1-0.5c0.7-0.3,1.9-1,3.7-1.9l2.8-1.6c8-4.6,15-10.2,21-16.5
		c0.8-0.9,1.7-1.8,2.5-2.8c1.1-1.3,2.4-3,4-5.1l5.8-8c4.4-6.1,8.4-10.5,12.1-13.2c1.5-1.1,3.1-2,5-2.9c0.7-0.3,1.3-0.5,1.6-0.3
		c0.1,0,0.1,0.1,0.1,0.2c-0.1,0.3-0.6,0.6-1.4,1.1c-0.9,0.5-1.5,0.8-1.7,0.9c-2.9,1.7-5.8,4.4-8.8,8l-1.6,2c-0.5,0.6-2,2.7-4.5,6.2
		l-2.7,3.7l1.9-0.9c2.2-1,4-1.3,5.4-0.9c1.3,0.4,2.1,1.2,2.5,2.6c0.2,0.8,0.3,1.7,0.1,2.6c3.3-2,5.9-2.7,7.7-2.1
		c1.2,0.4,2,1.3,2.5,2.7c0.1,0.4,0.2,0.8,0.2,1.1c0,0.6-0.1,1.3-0.3,1.9c-0.4,1.5-1.4,2.8-3,4c-1.4,1-2.8,1.7-4.2,2
		c-0.5,0.1-1.1,0.1-1.5,0.1c-0.3,0-0.6-0.1-0.9-0.2c-1.4-0.5-2-1.2-1.8-2.1c0.1-0.4,0.4-0.8,0.8-1c0.5-0.3,1-0.4,1.6-0.2
		c0.5,0.1,0.8,0.4,1,0.8c0.2,0.3,0.3,0.6,0.4,0.6c0.1,0.2,0.4,0.3,0.6,0.4c0.8,0.2,1.5,0.2,2-0.2c1-0.7,1.6-1.6,2-2.8
		c0,0,0-0.1,0-0.2c0.4-1.4,0.3-2.6-0.4-3.8c-0.2-0.3-0.4-0.6-0.6-0.8c-0.4-0.3-0.7-0.6-1.2-0.7c-1.3-0.4-2.9,0.2-4.7,1.8
		c-0.2,0.2-0.7,0.7-1.6,1.6c-1.2,1.2-2.3,2.1-3.4,2.6l-0.4,0.2c-1.8,0.8-3.4,1.1-4.7,0.7c-1.2-0.3-1.8-0.9-1.8-1.7
		c0-0.1,0-0.3,0.1-0.4c0.2-0.6,0.6-1,1.3-1.3c0.4-0.1,0.8-0.2,1.2,0c0.4,0.1,0.8,0.4,1,0.8c0.2,0.3,0.3,0.6,0.4,0.7
		c0.2,0.1,0.4,0.2,0.6,0.3c1,0.3,1.8,0.1,2.5-0.6c0.1-0.2,0.3-0.3,0.5-0.5c0.5-0.6,0.9-1.3,1.1-2c0.5-1.7,0.3-3-0.7-4.2
		c-0.5-0.5-0.9-0.9-1.4-1l-0.1,0c-0.7-0.2-1.6-0.1-2.7,0.4c-1.4,0.6-2.7,1.6-4.1,3c-0.4,0.4-0.9,1-1.4,1.7l-0.7,0.9
		c-3.8,4.7-8.6,9.3-14.5,13.8c-1.6,1.2-3.1,2.3-4.6,3.3l-2.2,1.4l-4.4,2.7l-0.8,0.5c-1.1,0.7-3.2,1.8-6.2,3.2l-2,1
		C125.5,403.3,125.1,403.4,124.8,403.3z"/>
	<path d="M206.8,387l1.4,0.2c2.1,0.2,3.8,0,4.9-0.7l1-0.6c0.2-0.1,0.4-0.1,0.6-0.1l0.1,0c0.1,0,0.2,0.1,0.2,0.2c0,0.3-0.4,0.7-1,1.2
		c-1.2,0.9-2.7,1.5-4.5,1.8c-1,0.2-2.1,0.2-3.1,0.1c-0.8-0.1-2-0.3-3.7-0.7c-0.5-0.1-1-0.2-1.5-0.3c-0.4-0.1-1.1-0.2-2-0.2
		c-1.2-0.1-2.6-0.1-4.2,0.1l-0.2,0.3c-4.1,6.1-8.2,11.4-12.3,15.9c-2.8,3.1-5.8,6-8.8,8.6l-0.7,0.6c-0.8,0.7-2.1,1.8-4.1,3.3
		c-0.8,0.6-1.3,1-1.6,1.2c-0.5,0.3-0.9,0.5-1.2,0.5c-0.1,0-0.2-0.1-0.2-0.2c0-0.3,0.4-0.7,1-1.2l3-2.3l0.4-0.3
		c7.4-6.1,14.5-14,21.3-23.9l2-2.9c0.5-0.7,1.3-2,2.2-3.9c1-2,1.5-3.3,1.6-4c0.1-0.7-0.1-1.3-0.4-1.8c-0.3-0.4-0.7-0.6-1.1-0.6
		c-1.1-0.1-2,0.1-2.8,0.5c-0.4,0.2-0.7,0.4-0.8,0.4c-0.1,0-0.2,0-0.2,0c-0.2,0-0.2-0.1-0.2-0.2c0-0.3,0.3-0.7,0.9-1.1
		c1.1-0.9,2.3-1.4,3.8-1.6c0.4-0.1,0.8-0.1,1.3,0c0.9,0,1.5,0.3,1.9,0.8c0.3,0.4,0.4,0.9,0.5,1.6c0,0.1,0,0.2,0,0.5
		c-0.1,0.6-0.2,1.2-0.6,2c0.8-0.7,1.8-1.4,3-2.1c2-1.1,3.6-1.6,4.9-1.5c1.2,0.1,2.2,0.6,2.9,1.6c0.7,0.9,1,1.9,0.9,3.1
		c-0.2,1.6-1.1,3.2-2.9,4.8C207.9,386.2,207.3,386.6,206.8,387z M201.2,386l2.5,0.3c1.4,0.1,2.4-0.1,3.1-0.6
		c0.1-0.1,0.2-0.1,0.3-0.2c0.8-0.8,1.3-1.8,1.4-2.8c0.1-1.2-0.2-2.2-1-3c-0.7-0.7-1.5-1.1-2.6-1.2c-1.3-0.1-2.8,0.6-4.6,2.1
		c-0.6,0.5-1.1,1-1.5,1.5c-0.6,0.7-1.4,2-2.4,3.7c-0.1,0.2-0.2,0.4-0.3,0.4c1.2-0.2,2.6-0.3,4.1-0.2
		C200.6,385.9,200.9,386,201.2,386z"/>
	<path d="M209.8,380.1c0-0.3,0.3-0.7,0.8-1.3c1-1,2.2-1.7,3.7-2c0.4-0.1,0.8-0.1,1.2-0.2l0.4,0c0.8,0,1.5,0.4,1.9,1.2
		c0.2,0.4,0.3,0.9,0.3,1.5c0,0.4-0.1,1-0.3,1.8l0.3-0.3c1.1-1.1,2.2-2,3.5-2.8c1.3-0.8,2.5-1.2,3.5-1.2c1.4,0,2.6,0.5,3.5,1.7
		c0.2,0.2,0.3,0.4,0.4,0.7c0.4,0.7,0.6,1.5,0.6,2.3c0,1.9-0.7,3.6-2.1,5.3c-0.7,0.8-1.5,1.5-2.3,2.1c-1.2,0.8-2.4,1.2-3.6,1.3
		c-1.2,0-2-0.3-2.2-1.1c0-0.1,0-0.3-0.1-0.4c0-0.5,0.2-1,0.6-1.4c0.4-0.3,0.8-0.5,1.3-0.5c0.4,0,0.8,0.2,1.2,0.5
		c0.3,0.3,0.5,0.5,0.6,0.5c0.2,0.1,0.4,0.1,0.6,0.1c1.5,0,2.6-0.8,3.1-2.2c0.2-0.6,0.3-1.3,0.3-2c0-1.5-0.6-2.6-1.7-3.5
		c-0.3-0.2-0.5-0.4-0.8-0.5c-0.5-0.3-1.1-0.4-1.6-0.4c-0.9,0-1.8,0.4-2.8,1.2c-0.2,0.1-0.4,0.3-0.6,0.5c-1,0.8-2,2.1-2.9,3.9
		l-1.4,2.5c-0.2,0.3-0.4,0.6-0.5,0.8c-0.9,1.2-1.6,1.9-2.3,2.1c-0.1,0-0.2,0-0.2,0c-0.2,0-0.2-0.1-0.2-0.2c0-0.2,0.2-0.6,0.7-1.2
		c0.2-0.2,0.3-0.3,0.3-0.4c0.8-1.3,1.5-2.9,2.1-4.9c0.3-1,0.4-1.8,0.4-2.3c0-1-0.3-1.6-0.9-2c-0.3-0.2-0.6-0.3-0.9-0.2
		c-1.1,0-2,0.3-2.7,0.8c-0.4,0.3-0.7,0.4-0.8,0.5c-0.1,0-0.1,0-0.2,0C209.9,380.2,209.8,380.2,209.8,380.1z"/>
	<path d="M220.6,367c0-0.4,0.1-0.7,0.4-0.9c0.1-0.1,0.3-0.1,0.4-0.1c0.7,0,1.3,0.7,1.7,2.2c0.1,0.5,0.2,1,0.2,1.4
		c0.1,1.9,0,2.9-0.5,3c-0.2,0-0.4-0.2-0.5-0.5l-0.5-2c-0.2-0.8-0.5-1.5-0.9-2.2C220.8,367.4,220.7,367.2,220.6,367z M224.3,370.7
		c-0.2,0-0.3-0.1-0.4-0.3c0-0.1,0-0.1,0-0.2l0.1-3c0.2-2.2,0.6-3.4,1.4-3.5c0,0,0.1,0,0.1,0c0.4,0,0.7,0.2,0.9,0.6
		c0.1,0.2,0.1,0.3,0.1,0.6c0,0.5-0.4,2-1.3,4.2c-0.3,0.6-0.4,1.1-0.5,1.3C224.7,370.6,224.5,370.7,224.3,370.7z M224.7,372
		c0-0.3,0.2-0.9,0.8-1.9c0.8-1.5,1.6-2.6,2.3-3c0.2-0.1,0.4-0.2,0.6-0.2c0.4,0,0.7,0.1,0.8,0.5c0,0.1,0.1,0.2,0.1,0.3
		c0,0.4-0.3,0.9-1,1.6l-1.7,1.8c-0.3,0.3-0.5,0.5-0.7,0.8c-0.3,0.3-0.6,0.5-0.7,0.6C224.9,372.4,224.7,372.2,224.7,372z"/>
	<path d="M227.9,380.1c0-0.3,0.2-0.7,0.6-1.3c0.8-1.1,2-1.9,3.3-2.4c0.4-0.1,0.8-0.3,1.2-0.3c0.7-0.1,1.3-0.1,1.7,0.1
		c0.3,0.1,0.5,0.4,0.7,0.7c0.3,0.4,0.5,0.9,0.5,1.4c0.1,0.6,0,1.2-0.1,1.9c0,0,0.1-0.2,0.4-0.5c0.5-0.6,1.1-1.3,1.9-2.1
		c1.7-1.5,3.2-2.4,4.5-2.6c1.2-0.1,2.3,0.2,3.2,0.9c1,0.8,1.6,1.9,1.8,3.4c0.2,1.3-0.2,2.8-1,4.4c-0.8,1.6-1.9,2.9-3.3,3.8
		c-0.9,0.6-1.8,1-2.8,1.1c-1.4,0.2-2.2-0.2-2.4-1.1c0-0.1,0-0.1,0-0.2c-0.1-0.4,0.1-0.9,0.3-1.3c0.3-0.5,0.8-0.8,1.4-0.9
		c0.5-0.1,0.9,0,1.2,0.3c0.3,0.2,0.5,0.4,0.6,0.4c0.2,0.1,0.4,0.1,0.7,0.1c1.4-0.2,2.3-1,2.8-2.4c0.2-0.7,0.2-1.3,0.2-2.1
		c-0.2-1.4-0.8-2.4-1.8-3.2c-0.8-0.6-1.8-0.9-2.8-0.8c-1.4,0.2-2.8,1.2-4,2.9c-1,1.4-1.7,2.9-2.3,4.7c-1.1,3.7-2.8,8-5.1,12.9
		c-3.3,7.2-7,13.6-10.9,19.1l-1.2,1.6c-0.6,0.8-1.7,2.2-3.3,4.1c-0.6,0.8-1.1,1.3-1.3,1.5c-0.4,0.4-0.8,0.7-1.1,0.7
		c-0.1,0-0.2,0-0.2-0.2c0-0.3,0.2-0.7,0.7-1.4l2.4-2.9l0.3-0.4c6.1-7.8,11.4-17.5,15.9-29.3c1.4-3.7,2.3-6.7,2.7-8.9
		c0.1-0.7,0.1-1.3,0.1-1.7c-0.1-0.7-0.4-1.3-0.8-1.6c-0.4-0.3-0.8-0.4-1.3-0.3c-1.1,0.1-1.9,0.5-2.6,1.1c-0.4,0.3-0.6,0.5-0.7,0.5
		c-0.1,0-0.2,0-0.2,0.1C228,380.3,227.9,380.2,227.9,380.1z"/>
	<path d="M253.6,376.7c-0.1-0.3,0.1-0.8,0.4-1.4c0.7-1.2,1.7-2.2,3-2.9c0.3-0.2,0.7-0.3,1.1-0.5l0.4-0.1c0.8-0.2,1.5,0,2.1,0.6
		c0.3,0.4,0.6,0.8,0.7,1.3c0.1,0.4,0.2,0.9,0.2,1.6c0,0.1,0,0.2,0,0.3l0.2-0.4c1-1.9,2.2-3.3,3.4-4.4c0.8-0.7,1.5-1.2,2.3-1.4
		c1.7-0.5,3.1-0.2,4.2,1c0.5,0.6,0.9,1.1,1.1,1.7c0.3,1,0.3,2.2-0.1,3.6c-0.3,1.2-0.8,2.4-1.6,3.6c-0.1,0.1-0.1,0.2-0.1,0.2
		c0,0,0.4-0.1,1.1-0.3c2.1-0.6,3.6-1.5,4.5-2.6l0.7-0.9c0.2-0.2,0.3-0.3,0.5-0.3l0.1,0c0.1,0,0.2,0,0.3,0.2c0.1,0.3-0.1,0.8-0.5,1.5
		c-0.8,1.4-2.1,2.5-3.7,3.4c-0.9,0.5-1.8,0.9-2.8,1.2c-0.6,0.2-2,0.5-4.2,0.9c-0.7,0.1-1.3,0.3-1.9,0.4c-0.2,0.1-0.5,0.1-0.8,0.2
		c-1.8,0.5-3.5,1.3-5.1,2.3c-0.2,0.1-0.4,0.2-0.5,0.3c-0.1,0-0.2,0-0.3-0.1c-0.1-0.2,0-0.6,0.3-1.1c0.2-0.3,0.3-0.6,0.3-0.7
		c0.5-1.4,0.7-3.1,0.7-5.2c0-1.1,0-1.9-0.2-2.4c-0.3-0.9-0.7-1.5-1.4-1.7c-0.3-0.1-0.6-0.1-0.9,0c-1,0.3-1.8,0.8-2.4,1.5
		c-0.3,0.4-0.5,0.6-0.6,0.7c-0.1,0-0.1,0.1-0.2,0.1C253.7,376.9,253.6,376.9,253.6,376.7z M265.3,380.7l2.4-0.6
		c1.4-0.4,2.3-1,2.7-1.8c0.5-1,0.7-2.1,0.5-3.2c0-0.1,0-0.2-0.1-0.3c-0.3-1.1-1-1.8-2-2.3c-0.7-0.3-1.5-0.5-2.3-0.3
		c-0.1,0-0.3,0.1-0.5,0.1c-0.8,0.2-1.5,0.8-2.3,1.6c-0.6,0.7-1.1,1.5-1.5,2.5c-0.4,1-0.8,2.5-1.3,4.4c-0.2,0.9-0.3,1.5-0.5,2
		l1.8-0.9C263.3,381.4,264.3,381,265.3,380.7z"/>
	<path d="M271,371.6c-0.1-0.3,0-0.8,0.3-1.5c0.6-1.3,1.5-2.3,2.8-3.2c0.3-0.2,0.7-0.4,1-0.6l0.4-0.2c0.8-0.3,1.5-0.2,2.1,0.5
		c0.3,0.3,0.6,0.8,0.8,1.3c0.3,0.9,0.5,2.3,0.5,4.2c0,2.5-0.3,4.6-0.9,6.1c-0.4,0.9-0.8,1.5-1.2,1.8c-0.1,0-0.1,0.1-0.2,0.1
		c-0.1,0.1-0.2,0-0.3-0.1c-0.1-0.2,0-0.6,0.3-1.4c0.1-0.2,0.1-0.4,0.2-0.5c0.3-1.5,0.4-3.2,0.3-5.3c-0.1-1.1-0.2-1.8-0.4-2.3
		c-0.3-0.9-0.9-1.4-1.6-1.6c-0.3-0.1-0.6-0.1-0.9,0.1c-1,0.4-1.7,0.9-2.2,1.7c-0.3,0.4-0.5,0.6-0.6,0.7c-0.1,0-0.1,0.1-0.2,0.1
		C271.2,371.7,271.1,371.7,271,371.6z"/>
	<path d="M272.2,364.5c-0.2,0.1-0.3,0-0.4-0.2l0-0.1c-0.1-0.2,0.4-1.9,1.3-5.2c0.8-2.9,1.4-4.8,1.7-5.6c0.1-0.3,0.3-0.5,0.5-0.5
		c0.3-0.1,0.6,0,0.8,0.3c0,0.1,0.1,0.1,0.1,0.1c0.1,0.2,0,0.7-0.2,1.4l-0.8,2.4c-0.8,2.5-1.7,4.7-2.5,6.5c-0.2,0.5-0.3,0.7-0.4,0.8
		C272.3,364.5,272.3,364.5,272.2,364.5z"/>
	<path d="M296.9,371.6c-1.1,0.6-2.2,0.7-3.3,0.3c-1.3-0.4-2.2-1.2-2.9-2.5c-1-1.9-1-4.3,0-7.1c0.7-1.8,1.6-3.1,2.9-3.9l0.4-0.2
		c1.2-0.6,2-0.6,2.6,0.1c0.1,0.1,0.1,0.2,0.2,0.3c0.3,0.5,0.3,1,0.1,1.6c-0.2,0.5-0.5,0.8-0.9,1.1c-0.4,0.2-0.8,0.2-1.3,0
		c-0.4-0.1-0.7-0.2-0.8-0.2c-0.1,0-0.3,0-0.4,0.1c0,0-0.1,0.1-0.2,0.1c-1.1,0.6-1.7,1.4-1.7,2.5c0,0.3,0,0.5,0,0.9
		c0.1,0.7,0.3,1.3,0.6,1.9c0.4,0.8,1.1,1.5,1.9,1.9c0.8,0.5,1.7,0.6,2.6,0.5c0.4-0.1,0.8-0.2,1.1-0.4c0.8-0.4,1.5-1.2,2-2.4
		c0.3-0.7,0.5-1.4,0.6-2.2c0.1-0.7,0.2-1.8,0.1-3.4c0-1.5,0.1-2.7,0.3-3.4c0.1-0.6,0.4-1.1,0.7-1.6c0.2-0.3,0.3-0.4,0.5-0.5
		c0.1-0.1,0.2,0,0.3,0.1c0.1,0.2,0.1,0.6-0.1,1.3c-0.1,0.3-0.1,0.5-0.1,0.6c-0.1,0.9,0.1,3,0.6,6.1c0.3,2.1,0.5,3.4,0.6,4
		c0.6,8.1-0.6,17.4-3.7,27.8l-1.8,5.6c-1,3-1.7,4.9-2,5.8c-0.2,0.5-0.5,0.9-0.8,1.1c-0.1,0.1-0.2,0-0.3-0.1c-0.2-0.3,0-1,0.3-2
		l2.1-5.9c4.2-12.8,5.7-23.5,4.4-32l-0.3-2c-0.5,1.4-1,2.3-1.2,2.9C298.9,369.9,298,371,296.9,371.6z"/>
	<path d="M300.5,358.1c-0.2-0.2-0.1-0.7,0-1.5c0.3-1.4,0.9-2.6,2-3.6c0.3-0.3,0.6-0.6,1-0.8c0.6-0.4,1.1-0.6,1.6-0.6
		c0.3,0,0.6,0.1,1,0.3c0.4,0.2,0.8,0.6,1.1,1.1c0.7,1.2,1.4,3.7,1.9,7.5c0.2,1.2,0.3,2.5,0.4,3.8c0.9,11.4,0.5,21.9-1.2,31.4l-0.4,2
		c-0.2,1-0.6,2.7-1.2,5.1c-0.2,1-0.4,1.6-0.5,2c-0.2,0.6-0.4,1-0.6,1.1c-0.1,0.1-0.2,0.1-0.3-0.1c-0.1-0.2-0.1-0.8,0.1-1.6l0.9-3.7
		l0.1-0.5c2.1-9.6,2.8-20.7,1.8-33.3c-0.3-4-0.8-7-1.4-9.2c-0.2-0.7-0.4-1.2-0.7-1.6c-0.4-0.6-0.9-1-1.4-1.1c-0.4-0.1-0.9,0-1.3,0.2
		c-0.9,0.6-1.5,1.3-1.9,2.1c-0.2,0.4-0.3,0.7-0.4,0.8c-0.1,0.1-0.1,0.1-0.2,0.2C300.7,358.3,300.6,358.3,300.5,358.1z"/>
	<path d="M300.9,356.9c-0.1,0.1-0.2,0.1-0.2,0c-0.1-0.1-0.4-2.1-0.8-5.9l-0.1-0.9c-0.4-3.6-0.1-6.6,0.8-9c0.5-1.4,1.2-2.4,2-2.9
		c0.8-0.5,1.6-0.6,2.4-0.4c0.8,0.2,1.4,0.7,1.8,1.4c0.7,1,0.9,2.2,0.6,3.7c-0.2,1.2-0.6,2.1-1.3,2.9c-0.2,0.2-0.3,0.3-0.5,0.4
		c-0.7,0.4-1.3,0.5-1.9,0.3c-0.3-0.1-0.6-0.4-0.8-0.7c-0.4-0.6-0.4-1.3-0.1-2.3c0.2-0.6,0.3-0.9,0.5-1.1c0.1-0.1,0.2,0,0.2,0
		c0.1,0.1,0.1,0.3,0.1,0.6c0,0.2,0,0.3,0.1,0.4c0.4,0.6,1,0.8,1.7,0.6c0.2-0.1,0.4-0.1,0.6-0.2c0.5-0.4,0.7-0.8,0.5-1.4
		c-0.1-0.2-0.2-0.5-0.4-0.8c-0.6-0.9-1.3-1.3-2.3-1.3c-0.6,0-1.1,0.1-1.6,0.4c-1.3,0.8-1.8,3.1-1.6,6.7c0.1,1,0.3,2.8,0.6,5.5
		c0.1,1,0.2,1.7,0.2,2.1c0,0.5-0.1,1.1-0.4,1.6C301.1,356.7,301,356.9,300.9,356.9z"/>
	<path d="M319.8,357.5c-1.2,0.9-2.6,1.2-4,0.8c-1.4-0.3-2.5-1.1-3.5-2.5c-1-1.4-1.7-3.8-2.1-7.3c-0.2-1.9-0.3-4.1-0.3-6.5l0-1.5
		c0.1-4.3,0.5-8.8,1.1-13.5c0.8-5.8,1.4-9.3,1.9-10.5c0.1-0.2,0.2-0.3,0.3-0.5c0.1-0.1,0.2-0.1,0.3,0c0.2,0.2,0.2,0.7,0.1,1.5
		l-0.9,4.9l-0.7,5.2c-0.8,6.7-1.1,12.4-0.8,17c0.3,4,1,6.7,2.1,8.2c0.9,1.2,2,1.9,3.3,2.2c1,0.2,1.9,0.1,2.7-0.3
		c0.3-0.1,0.5-0.3,0.8-0.5c0.7-0.5,1.3-1.1,1.7-1.8c0.3-0.4,0.4-0.8,0.5-1.1c0.1-0.7-0.1-1.5-0.6-2.4c-0.1-0.1-0.2-0.3-0.2-0.4
		c-0.4-0.5-0.9-0.8-1.5-1c-0.5-0.1-0.8-0.3-1-0.4c-0.1-0.1-0.3-0.2-0.4-0.4c-0.2-0.3-0.3-0.7-0.4-1.2c0-0.7,0.2-1.2,0.8-1.6
		c0.5-0.4,1.1-0.4,1.7-0.1c0.5,0.2,1,0.7,1.4,1.3c0.9,1.3,1.4,2.8,1.3,4.8c-0.1,1.9-0.7,3.6-1.7,5.2c-0.3,0.5-0.7,0.9-1,1.3
		C320.5,356.9,320.2,357.2,319.8,357.5z"/>
	<path d="M319.5,345.1c-0.2-0.2-0.3-0.7-0.2-1.5c0.1-1.4,0.6-2.7,1.5-3.9c0.2-0.3,0.5-0.6,0.8-0.9l0.3-0.3c0.6-0.6,1.4-0.7,2.2-0.3
		c0.4,0.2,0.8,0.5,1.2,0.9c0.6,0.7,1.2,2,1.9,3.8c0.9,2.4,1.3,4.4,1.2,6.1c0,1-0.2,1.7-0.5,2.1c0,0.1-0.1,0.1-0.1,0.1
		c-0.1,0.1-0.2,0.1-0.3,0c-0.1-0.1-0.2-0.6-0.2-1.4c0-0.3,0-0.4,0-0.5c-0.2-1.5-0.7-3.2-1.5-5c-0.4-1-0.8-1.7-1.1-2
		c-0.6-0.7-1.3-1.1-2-1c-0.3,0-0.6,0.2-0.8,0.4c-0.8,0.7-1.3,1.5-1.5,2.3c-0.1,0.5-0.2,0.8-0.3,0.9c0,0.1-0.1,0.1-0.1,0.2
		C319.7,345.2,319.6,345.2,319.5,345.1z"/>
	<path d="M318.3,338c-0.1,0.1-0.3,0.1-0.4,0l0,0c-0.1-0.1-0.3-1.9-0.6-5.4c-0.2-3-0.3-5-0.3-5.8c0-0.3,0.1-0.5,0.3-0.7
		c0.3-0.2,0.6-0.3,0.9,0c0,0,0.1,0.1,0.1,0.1c0.2,0.2,0.3,0.7,0.3,1.4l0,2.5c0,2.6,0,5-0.1,7C318.4,337.6,318.4,337.9,318.3,338
		C318.3,338,318.3,338,318.3,338z"/>
	<path d="M330.6,335.8c-0.2-0.2-0.3-0.7-0.4-1.4c-0.1-1.4,0.2-2.7,0.9-4c0.2-0.4,0.4-0.7,0.7-1.1c0.5-0.6,0.9-0.9,1.3-1
		c0.3-0.1,0.6,0,1,0.1c0.5,0.1,0.9,0.4,1.3,0.8c0.4,0.4,0.8,0.9,1.2,1.5c0,0,0-0.2,0-0.6c0-0.8,0-1.7,0.1-2.8
		c0.3-2.3,0.9-3.9,1.7-4.9c0.8-0.9,1.8-1.4,3-1.4c1.3-0.1,2.5,0.4,3.6,1.4c1,0.9,1.7,2.2,2.1,4s0.4,3.4,0,5
		c-0.3,1.1-0.7,1.9-1.4,2.7c-0.9,1-1.8,1.3-2.5,0.7c-0.1,0-0.1-0.1-0.1-0.1c-0.3-0.3-0.5-0.7-0.6-1.2c-0.1-0.6,0.1-1.1,0.5-1.6
		c0.3-0.3,0.7-0.5,1.1-0.6c0.4,0,0.6,0,0.8-0.1c0.2-0.1,0.4-0.2,0.6-0.4c1-1.1,1.1-2.3,0.5-3.6c-0.3-0.6-0.7-1.2-1.2-1.7
		c-1-0.9-2.2-1.4-3.4-1.3c-1,0.1-1.9,0.5-2.6,1.2c-0.9,1.1-1.3,2.7-1.1,4.9c0.2,1.7,0.6,3.3,1.3,5c1.6,3.5,3.1,7.9,4.6,13.1
		c2.2,7.6,3.6,14.8,4.2,21.6l0.2,2c0.1,1,0.2,2.8,0.2,5.3c0,1,0,1.7,0,2c0,0.6-0.1,1-0.3,1.2c-0.1,0.1-0.2,0.1-0.3,0
		c-0.2-0.2-0.3-0.7-0.4-1.5l-0.1-3.8l0-0.5c-0.5-9.8-2.8-20.7-7.1-32.5c-1.3-3.8-2.6-6.6-3.8-8.5c-0.4-0.6-0.7-1.1-1.1-1.4
		c-0.5-0.5-1.1-0.7-1.7-0.7c-0.4,0-0.8,0.2-1.2,0.6c-0.7,0.8-1.1,1.6-1.3,2.5c-0.1,0.5-0.1,0.8-0.2,0.9c0,0.1-0.1,0.1-0.1,0.2
		C330.8,335.9,330.7,335.9,330.6,335.8z"/>
	<path d="M342.9,322.2c-0.2-0.2-0.4-0.6-0.5-1.4c-0.2-1.4,0.1-2.8,0.7-4.1c0.2-0.3,0.4-0.7,0.6-1l0.3-0.3c0.5-0.7,1.2-0.9,2.1-0.7
		c0.5,0.1,0.9,0.3,1.4,0.7c0.7,0.6,1.6,1.7,2.6,3.3c1.3,2.2,2.1,4.1,2.4,5.7c0.2,1,0.2,1.7,0,2.2c0,0.1-0.1,0.1-0.1,0.2
		c-0.1,0.1-0.2,0.1-0.3,0.1c-0.2-0.1-0.3-0.6-0.5-1.3c-0.1-0.3-0.1-0.4-0.1-0.5c-0.5-1.4-1.3-3-2.5-4.6c-0.6-0.9-1.1-1.5-1.5-1.8
		c-0.8-0.6-1.5-0.8-2.2-0.5c-0.3,0.1-0.5,0.3-0.7,0.5c-0.6,0.8-1,1.7-1,2.6c0,0.5-0.1,0.8-0.1,0.9c0,0.1-0.1,0.1-0.1,0.2
		C343.1,322.3,343,322.3,342.9,322.2z"/>
	<path d="M342.9,320.9c-0.1,0.1-0.1,0.1-0.2,0.1c-0.1-0.1-1.1-1.9-2.8-5.3l-0.4-0.8c-1.6-3.3-2.4-6.2-2.3-8.8c0-1.5,0.3-2.7,0.9-3.4
		c0.5-0.7,1.3-1.1,2.1-1.2c0.8-0.1,1.5,0.1,2.2,0.7c1,0.7,1.6,1.8,1.8,3.2c0.2,1.2,0.1,2.2-0.2,3.1c-0.1,0.2-0.2,0.4-0.3,0.6
		c-0.5,0.6-1,0.9-1.7,0.9c-0.4,0-0.7-0.1-1-0.3c-0.5-0.4-0.9-1.1-0.9-2.1c0-0.6,0-1,0.1-1.2c0.1-0.1,0.1-0.1,0.2,0
		c0.1,0.1,0.2,0.2,0.3,0.5c0.1,0.2,0.1,0.3,0.2,0.3c0.6,0.4,1.2,0.4,1.8,0c0.2-0.1,0.4-0.3,0.5-0.4c0.4-0.5,0.4-1,0-1.5
		c-0.2-0.2-0.4-0.4-0.7-0.6c-0.8-0.6-1.7-0.8-2.6-0.5c-0.5,0.2-1,0.5-1.3,0.9c-0.9,1.2-0.6,3.5,0.8,6.9c0.4,0.9,1.2,2.6,2.4,4.9
		c0.5,0.9,0.8,1.5,1,1.9c0.2,0.5,0.3,1,0.2,1.6C343,320.7,342.9,320.8,342.9,320.9z"/>
	<path d="M355.3,302.6c-0.2,0.3-0.5,0.8-1,1.5c-1.4,2.4-1.9,4.6-1.5,6.7c0.1,0.7,0.1,1.1,0,1.4c-0.1,0.1-0.2,0.2-0.3,0.1
		c-0.3-0.2-0.5-0.7-0.7-1.6c-0.3-1.6-0.3-3.4,0.1-5.3c0.3-1.2,0.7-2.3,1.3-3.4l0.4-0.7c0.5-0.8,1.3-2,2.5-3.5c1.4-1.8,2.7-3.8,4-5.9
		c0.4-0.7,0.7-1.5,0.7-2.1c0-0.3,0.1-0.5,0.1-0.6c0.1-0.1,0.2-0.2,0.3-0.1c0.4,0.2,0.6,0.9,0.7,1.8c0,0.8-0.1,1.6-0.3,2.3
		c0,0.1,0,0.2,0,0.3c0,0,0.3,0.3,0.8,1l2,2.4c1.7,2.1,3,3.8,3.9,4.9c4.7,6.6,8.4,15.1,11.2,25.5l1.4,5.5c0.7,3.1,1.1,5.1,1.3,6
		c0.1,0.6,0.1,1-0.1,1.3c-0.1,0.1-0.2,0.2-0.3,0.1c-0.3-0.2-0.6-0.8-0.8-1.9l-1.3-6.1c-1-4.2-2-7.8-3-10.8
		c-2.5-7.2-5.6-13.4-9.5-18.4c-1-1.3-1.5-2-1.6-2l0.3,1.5c0.1,0.9,0.2,1.7,0.2,2.5c0,1.5-0.2,2.7-0.8,3.7c-0.6,1.1-1.5,1.8-2.7,2
		c-1.1,0.3-2.1,0.1-3.1-0.5c-1-0.6-1.8-1.6-2.5-3c-0.6-1.3-1-2.7-1.2-4.4L355.3,302.6z M358.8,307.1c1,0.6,2.1,0.7,3.1,0.4
		c0.9-0.3,1.6-0.9,2.1-1.8c0.4-0.7,0.6-1.7,0.5-2.9c-0.1-1.1-0.4-2.1-0.9-3.2c-0.4-0.8-0.9-1.6-1.7-2.6c-0.6-0.7-1-1.4-1.3-2
		c0,0-0.2,0.3-0.6,1c-0.7,1.2-1.6,2.5-2.8,4.1c-0.1,0.2-0.2,0.3-0.3,0.4c-0.4,0.7-0.6,1.7-0.4,2.8c0.2,1.3,0.7,2.4,1.6,3.2
		C358.3,306.8,358.5,306.9,358.8,307.1z"/>
	<path d="M346.3,295c-0.4-0.2-0.5-0.5-0.5-0.8c0-0.1,0-0.3,0.1-0.4c0.4-0.6,1.3-0.7,2.7-0.3c0.5,0.2,0.9,0.3,1.3,0.5
		c1.7,0.9,2.5,1.6,2.3,2c-0.1,0.2-0.4,0.3-0.7,0.2l-1.9-0.6c-0.8-0.2-1.6-0.3-2.3-0.3C346.8,295.2,346.5,295.1,346.3,295z
		 M351.4,293.8c-0.1,0.2-0.2,0.2-0.4,0.2c-0.1,0-0.1,0-0.2-0.1l-2.5-1.6c-1.8-1.3-2.6-2.3-2.3-3c0,0,0-0.1,0-0.1
		c0.2-0.4,0.5-0.5,1-0.5c0.2,0,0.4,0.1,0.6,0.2c0.5,0.3,1.5,1.3,3,3.3c0.4,0.5,0.7,0.9,0.8,1.1C351.5,293.4,351.5,293.6,351.4,293.8
		z M352.7,294.2c-0.2-0.1-0.6-0.7-1.2-1.6c-0.9-1.5-1.4-2.7-1.4-3.5c0-0.3,0-0.5,0.1-0.6c0.2-0.3,0.5-0.5,0.8-0.4
		c0.1,0,0.2,0,0.3,0.1c0.3,0.2,0.6,0.7,0.9,1.7l0.6,2.4c0.1,0.4,0.2,0.7,0.3,1c0.1,0.5,0.2,0.7,0.1,0.9
		C353.1,294.2,352.9,294.2,352.7,294.2z"/>
	<path d="M361.3,295.6c-0.3-0.1-0.5-0.5-0.8-1.2c-0.5-1.3-0.6-2.7-0.3-4.1c0.1-0.4,0.2-0.8,0.4-1.2c0.3-0.7,0.6-1.1,1-1.3
		c0.3-0.2,0.6-0.2,1-0.3c0.5,0,1,0.1,1.5,0.3c0.5,0.2,1,0.6,1.6,1.1c0,0-0.1-0.2-0.2-0.6c-0.3-0.7-0.5-1.6-0.8-2.7
		c-0.4-2.3-0.4-4,0.1-5.2c0.5-1.1,1.3-1.9,2.5-2.3c1.2-0.5,2.5-0.4,3.9,0.2c1.2,0.5,2.3,1.6,3.3,3.1c0.9,1.5,1.4,3.1,1.5,4.7
		c0.1,1.1-0.1,2.1-0.5,3c-0.6,1.3-1.3,1.8-2.2,1.5c-0.1,0-0.1,0-0.2-0.1c-0.4-0.2-0.7-0.5-0.9-0.9c-0.3-0.5-0.3-1.1,0-1.7
		c0.2-0.4,0.5-0.7,0.9-0.9c0.4-0.1,0.6-0.2,0.7-0.3c0.2-0.1,0.3-0.3,0.4-0.6c0.6-1.3,0.4-2.5-0.6-3.6c-0.5-0.5-1-0.9-1.7-1.2
		c-1.3-0.6-2.5-0.6-3.7-0.2c-1,0.4-1.7,1-2.1,2c-0.6,1.3-0.4,3,0.4,5c0.7,1.5,1.6,3,2.8,4.3c2.6,2.8,5.4,6.5,8.4,11
		c4.4,6.6,8,13,10.7,19.2l0.8,1.9c0.4,0.9,1,2.6,1.9,4.9c0.3,1,0.5,1.6,0.6,1.9c0.2,0.6,0.2,1,0.1,1.3c-0.1,0.1-0.2,0.2-0.3,0.1
		c-0.3-0.1-0.5-0.6-0.8-1.4l-1.3-3.5l-0.2-0.5c-3.5-9.2-9.1-18.8-16.8-28.7c-2.4-3.2-4.5-5.5-6.3-6.9c-0.6-0.5-1-0.8-1.4-1
		c-0.7-0.3-1.3-0.3-1.8-0.2c-0.4,0.2-0.7,0.5-0.9,0.9c-0.4,1-0.6,1.9-0.4,2.8c0.1,0.5,0.1,0.8,0.1,0.9c0,0.1,0,0.2-0.1,0.2
		C361.5,295.6,361.4,295.7,361.3,295.6z"/>
	<path d="M372,272.1c-0.3-0.1-0.6-0.4-1-1.1c-0.7-1.2-1.1-2.6-1.1-4.1c0-0.4,0-0.8,0.1-1.2l0.1-0.4c0.2-0.8,0.7-1.3,1.6-1.5
		c0.5-0.1,1-0.1,1.5,0c0.5,0.1,0.9,0.3,1.2,0.5c0,0,0.1,0,0.1,0c0,0-0.2-0.3-0.5-0.9c-1.3-2.2-1.9-4.1-1.8-5.6c0-0.1,0-0.3,0.1-0.6
		c0.3-1.2,1.1-2.1,2.4-2.6c0.8-0.3,1.7-0.4,2.7-0.3c-1.1-1.5-1.8-2.9-2.3-4.4c-0.4-1.2-0.5-2.3-0.3-3.2c0.2-1,0.8-1.8,1.8-2.3
		c0.8-0.4,1.7-0.7,2.7-0.6c0.3,0,0.7,0.1,1.1,0.1c1.7,0.4,3.2,1.4,4.5,3c1.1,1.3,1.8,2.7,2,4.2c0.2,0.8,0.2,1.6,0,2.2
		c-0.3,1.2-0.8,1.8-1.6,1.9c-0.1,0-0.3,0-0.4,0c-0.5-0.1-0.9-0.4-1.2-0.9c-0.3-0.5-0.4-0.9-0.2-1.5c0.1-0.4,0.4-0.8,0.7-1
		c0.3-0.2,0.5-0.4,0.6-0.5c0.1-0.2,0.2-0.3,0.3-0.6c0.2-0.7,0.1-1.3-0.1-1.7c-0.1-0.1-0.2-0.3-0.3-0.4c-0.8-0.9-1.8-1.5-3-1.8
		c-1.4-0.3-2.7-0.1-3.8,0.7c-0.3,0.2-0.5,0.4-0.7,0.6c-0.3,0.4-0.5,0.7-0.6,1.2c-0.3,1.5,0.5,3.2,2.6,5.1c0.2,0.2,0.8,0.7,1.7,1.5
		c0.4,0.3,0.8,0.7,1.1,1.1c0.9,1,1.6,2.2,2.1,3.4c0.4,1,0.5,1.9,0.5,2.8c0,0.1,0,0.3-0.1,0.6c-0.3,1.3-0.9,1.9-1.7,1.9
		c-0.1,0-0.2,0-0.3,0c-0.5-0.1-0.9-0.4-1.2-0.9c-0.3-0.4-0.3-0.9-0.2-1.4c0.1-0.4,0.4-0.8,0.8-1.1c0.4-0.2,0.6-0.4,0.7-0.5
		c0.1-0.1,0.1-0.2,0.2-0.4c0,0,0-0.1,0-0.1c0.2-0.8,0.1-1.5-0.4-2.1c-0.1-0.1-0.3-0.3-0.6-0.6c-0.7-0.6-1.5-1-2.4-1.2
		c-1.2-0.3-2.2-0.2-3.2,0.3c-0.4,0.2-0.8,0.5-1,0.8c-0.4,0.4-0.7,0.9-0.8,1.4c-0.3,1.4,0.5,3.1,2.5,5.1c0.5,0.5,1.5,1.4,3,2.8
		c0.7,0.6,1.1,1,1.4,1.3c1,1.1,1.5,2.1,1.5,2.8c0,0.1,0,0.2,0,0.2c0,0.2-0.1,0.2-0.2,0.2c-0.2,0-0.5-0.4-1-1
		c-0.2-0.2-0.3-0.3-0.3-0.4c-1-1.1-2.4-2.2-4.2-3.2c-0.9-0.5-1.6-0.9-2.1-1c-0.9-0.2-1.7-0.1-2.2,0.4c-0.2,0.2-0.4,0.5-0.5,0.8
		c-0.2,1-0.2,2,0.1,2.8c0.2,0.5,0.3,0.7,0.3,0.9c0,0.1,0,0.1,0,0.2C372.2,272,372.1,272.1,372,272.1z"/>
	<path d="M374.5,261.9c0,0.1-0.1,0.2-0.2,0.1c-0.2,0-0.3-0.2-0.6-0.4c-0.6-0.7-2.5-2.9-5.7-6.8c-1.5-1.9-2.5-3-2.9-3.6
		c-2.3-3-3.5-5.4-3.8-7.4c-0.1-0.4-0.1-0.8,0-1.1c0-0.1,0-0.2,0-0.3c0.1-1,0.7-1.8,1.5-2.3c0.6-0.3,1.2-0.4,1.9-0.3
		c0.9,0.1,1.9,0.7,2.8,1.7c0.9,1,1.4,2,1.6,3c0.1,0.4,0.1,0.7,0,1.1c-0.1,0.8-0.5,1.3-1.1,1.7c-0.3,0.2-0.7,0.2-1.1,0.2
		c-0.6-0.1-1.2-0.5-1.8-1.3c-0.5-0.6-0.7-1.1-0.7-1.5c0-0.1,0.1-0.2,0.2-0.1c0.1,0,0.3,0.1,0.5,0.4c0.2,0.2,0.4,0.3,0.6,0.4
		c0.6,0.1,1-0.1,1.4-0.5c0.2-0.3,0.4-0.6,0.4-1c0.1-0.6,0-0.9-0.2-1.1c-0.4-0.4-0.9-0.6-1.5-0.7c-0.9-0.1-1.6,0.1-2.2,0.6
		c-0.5,0.4-0.8,1-0.9,1.7c-0.2,1.6,0.6,3.6,2.5,6l0.7,0.9l4.9,5.8c1.9,2.2,2.9,3.4,3.1,3.6C374.4,261.2,374.6,261.6,374.5,261.9z"/>
	<path d="M379.1,231.4c-0.6,0-1-0.3-1.2-0.8c-0.1-0.2-0.2-0.4-0.1-0.7c0.1-0.8,0.4-1.3,1.1-1.4c0.2,0,0.3,0,0.5,0
		c0.6,0,1,0.3,1.3,0.8c0.1,0.2,0.2,0.5,0.1,0.8c0,0.6-0.3,1-0.9,1.2C379.6,231.4,379.4,231.4,379.1,231.4z M386.6,234.5
		c-0.3,0-0.6-0.2-0.9-0.4c-0.3-0.3-0.5-0.7-0.5-1.1c0-0.7,0.3-1.1,0.9-1.3c0.2-0.1,0.4-0.1,0.7-0.1c0.6,0,1.1,0.3,1.3,0.9
		c0.1,0.2,0.1,0.5,0.1,0.7c0,0.6-0.3,1-0.9,1.2C387.1,234.4,386.8,234.5,386.6,234.5z"/>
	<path d="M383.3,225c-0.3,0-0.6-0.1-0.9-0.4c-0.4-0.3-0.5-0.7-0.5-1.1c0-0.6,0.3-1.1,0.8-1.3c0.2-0.1,0.5-0.2,0.7-0.1
		c0.6,0,1,0.3,1.3,0.7c0.1,0.2,0.2,0.5,0.2,0.8c0,0.6-0.3,1-0.8,1.3C383.8,225,383.6,225,383.3,225z"/>
</g>
<g>
	<path d="M189.9,257.5l12-9.5l-9.6-42.1H167l-11.1,42.8l12.9,8.8h-37.4l15.4-9.1l25.6-92.5l-19.1-9.1h39L218.9,248l14.7,9.5H189.9z
		 M190.6,198.7l-10.1-41.3l-11.3,41.3H190.6z M191.8,188.2l5.2,5l2-6.8l-10.9-27.8L191.8,188.2z M198.1,197.5l-2.4,5.6l4.7,4
		l2.2-5.6L198.1,197.5z M199.5,218.5l10.6,28.7l-3.6-30.5l-4.9-5L199.5,218.5z"/>
	<path d="M233.9,246.5c-0.8-3.2-0.5-6,0.8-8.2s3.6-3.4,6.8-3.5c1.1,0,2.2,0.2,3.1,0.7c1,0.5,1.8,1.1,2.6,2c0.7,0.9,1.2,1.8,1.5,2.9
		c0.3,1.1,0.2,2.3-0.3,3.6c-0.7,2.2-0.7,4,0.1,5.4c0.7,1.4,2.5,2.2,5.4,2.2c1.3,0,2.5-0.3,3.5-0.9c1.1-0.6,2-1.4,2.8-2.5
		c0.8-1.1,1.5-2.3,2.1-3.6c0.6-1.4,1.1-2.8,1.5-4.2c0.9-3.4,1.7-7.3,2.2-11.5v-74.1l-14.5-8.1H298l-15.7,8.3v71.3
		c0.1,6.1-0.8,11.4-2.7,16.1c-0.8,2-1.8,4-3.1,6c-1.3,1.9-3,3.6-5.1,5.1c-2,1.5-4.5,2.7-7.3,3.6c-2.8,0.9-6.1,1.4-9.9,1.4
		c-3.3,0-6.2-0.4-8.5-1.3c-2.3-0.9-4.3-1.9-6-3.1c-1.6-1.2-2.9-2.6-3.8-4C235,248.9,234.3,247.6,233.9,246.5z M264.7,250.3
		c2.3-1.5,4.4-3.4,6.3-5.9c1.9-2.5,3.4-5.2,4.6-8.1c0.9-2.2,1.6-4.6,2-7.2c0.4-2.6,0.6-5.5,0.6-9l-3.6-6.1l-3.7,6.1
		c0,2.2,0.1,4.5,0.3,6.7c0.2,2.3,0.1,4.5-0.2,6.8c-0.4,3.1-1.1,6-2,8.8C268.2,245.4,266.7,247.9,264.7,250.3z M274.6,158l-3.8,29.6
		l3.7,6.1l3.8-6.1L274.6,158z M271,203l3.5,5l3.7-5l-3.7-4.9L271,203z"/>
</g>
<g>
	<path d="M142,280.8l2.1-1.6l-1.6-7.2h-4.4l-1.9,7.3l2.2,1.5H132l2.6-1.6l4.4-15.9l-3.3-1.6h6.7l4.6,17.4l2.5,1.6H142z M142.2,270.7
		l-1.7-7.1l-1.9,7.1H142.2z M142.4,268.9l0.9,0.9l0.4-1.2l-1.9-4.8L142.4,268.9z M143.4,270.5l-0.4,1l0.8,0.7l0.4-1L143.4,270.5z
		 M143.7,274.1l1.8,4.9l-0.6-5.2l-0.8-0.9L143.7,274.1z"/>
	<path d="M150.4,263.9l-0.9,0.8v8.9c0,0.4,0,0.8,0.1,1.2c0.1,0.3,0.2,0.6,0.4,0.8c0.2,0.2,0.4,0.4,0.7,0.4c0.4,0,0.7-0.1,0.9-0.4
		c0.2-0.2,0.3-0.5,0.4-0.8c0.1-0.4,0.1-0.8,0.1-1.2v-8.8l-0.8-0.9h3.3l-0.9,0.8v8.7c0,0.7-0.1,1.3-0.3,1.9c-0.1,0.2-0.2,0.5-0.4,0.7
		c-0.2,0.2-0.4,0.4-0.6,0.6c-0.2,0.2-0.5,0.3-0.9,0.4c-0.3,0.1-0.7,0.2-1.2,0.2s-0.9-0.1-1.2-0.2s-0.6-0.3-0.9-0.4
		c-0.2-0.2-0.4-0.4-0.6-0.6c-0.2-0.2-0.3-0.5-0.4-0.7c-0.2-0.6-0.3-1.2-0.3-1.9v-8.6l-1-0.9H150.4z"/>
	<path d="M154.9,277.2l1.5-0.9v-11.4l-1.2-1h4.2c0.2,0,0.5,0,0.9,0.1c0.4,0.1,0.8,0.2,1.2,0.4c0.4,0.2,0.7,0.5,1,1
		c0.3,0.4,0.5,1,0.5,1.7c0,0.7-0.1,1.2-0.3,1.7c-0.2,0.5-0.4,0.8-0.7,1.1c-0.3,0.3-0.5,0.5-0.8,0.6c-0.3,0.1-0.5,0.2-0.7,0.2l3,5.6
		l1.2,0.9h-3.4l-2.8-5.8v4.9l1.5,0.9H154.9z M158.6,269.9c0.5,0,1-0.1,1.3-0.2c0.2-0.1,0.3-0.2,0.5-0.3c0.2-0.1,0.3-0.3,0.4-0.5
		c0.1-0.2,0.2-0.4,0.3-0.7c0.1-0.3,0.1-0.6,0.1-1c0-0.6-0.2-1.1-0.5-1.5s-0.6-0.6-0.9-0.7c-0.4-0.2-0.8-0.2-1.3-0.3V269.9z"/>
	<path d="M172.9,263.9v4.7l-1.6-4h-2.6v5.3h1.6l1.1-1.6v4l-1-1.5h-1.6v5.3h2.7l1.5-5v6h-7.7l1-0.8v-11.6l-1-0.9H172.9z"/>
	<path d="M173.4,277.2l1.1-0.8v-11.6l-1.1-0.9h4.8l-1.1,0.7v11.7h1.5l1.6-4.9v5.7H173.4z"/>
	<path d="M185.1,263.9l-0.9,0.7v11.7l0.9,0.9h-4.5l0.9-0.9v-11.7l-1-0.7H185.1z"/>
	<path d="M193.3,263.9v4.7l-1.6-4H189v5.3h1.6l1.1-1.6v4l-1-1.5H189v5.3h2.7l1.5-5v6h-7.7l1-0.8v-11.6l-1-0.9H193.3z"/>
	<path d="M210.7,270.4h6.2l-2.5,1.6c-0.1,0.7-0.3,1.3-0.5,2c-0.2,0.6-0.4,1.2-0.7,1.9c-0.3,0.7-0.7,1.4-1.1,2l0.8,1.5l3.1,1.5h-5.1
		l-0.5-1.1c-0.6,0.4-1.2,0.7-2,0.9s-1.6,0.4-2.5,0.4c-1,0-1.8-0.1-2.6-0.5c-0.7-0.4-1.3-0.8-1.7-1.3c-0.4-0.5-0.8-1.1-0.9-1.8
		c-0.2-0.6-0.3-1.2-0.2-1.7c0-0.4,0.1-0.8,0.2-1.3c0.1-0.5,0.3-1,0.6-1.5c0.3-0.5,0.8-1,1.4-1.5c0.6-0.5,1.4-1,2.4-1.4l-0.2-0.4
		c-0.3-0.5-0.5-1-0.7-1.5c-0.2-0.4-0.3-0.9-0.5-1.5c-0.1-0.5-0.2-1.1-0.1-1.6c0-0.5,0.2-0.9,0.4-1.4c0.2-0.4,0.5-0.8,0.9-1.1
		c0.4-0.3,0.9-0.6,1.4-0.8c0.5-0.2,1.1-0.3,1.8-0.3c0.8,0,1.4,0.1,1.9,0.4c0.5,0.2,0.9,0.6,1.1,0.9c0.3,0.4,0.5,0.8,0.6,1.3
		s0.2,0.9,0.2,1.4c0,0.5-0.1,1-0.4,1.5c-0.2,0.5-0.5,0.9-0.9,1.4s-0.8,0.8-1.2,1.1s-0.9,0.6-1.3,0.9l3.3,6.2
		c0.2-0.3,0.3-0.6,0.5-0.9c0.2-0.3,0.4-0.7,0.5-1.1c0.2-0.4,0.3-0.8,0.4-1.3c0.1-0.4,0.1-0.9,0.1-1.4L210.7,270.4z M201.5,274.1
		l-0.6,1.6l0.6,1.8l0.7-1.8L201.5,274.1z M206.7,279.5c0.3,0,0.6,0,0.8-0.1c0.3-0.1,0.5-0.1,0.7-0.2c0.2-0.1,0.5-0.2,0.7-0.3
		c0.2-0.1,0.4-0.3,0.7-0.4l-3.9-7.1c-0.3,0.2-0.7,0.4-1,0.6c-0.3,0.2-0.6,0.5-0.9,0.8c-0.3,0.3-0.5,0.7-0.7,1.1
		c-0.2,0.4-0.3,0.9-0.3,1.4c0,0.5,0,1,0.1,1.5c0.1,0.5,0.4,1,0.7,1.4c0.3,0.4,0.7,0.8,1.2,1C205.3,279.4,205.9,279.5,206.7,279.5z
		 M204.9,264.3c-0.1,0.2-0.2,0.4-0.3,0.7s-0.1,0.5-0.1,0.8s0,0.6,0,0.9c0,0.3,0.1,0.6,0.1,0.8c0.1,0.4,0.2,0.8,0.4,1.3
		c0.2,0.4,0.4,0.9,0.7,1.4l1,0.7l0.1-1.2c-0.2-0.2-0.3-0.4-0.5-0.6c-0.1-0.2-0.3-0.4-0.5-0.7c-0.2-0.3-0.3-0.6-0.5-0.9
		c0-0.1-0.1-0.2-0.2-0.4c-0.1-0.2-0.2-0.4-0.2-0.7c-0.1-0.3-0.1-0.6-0.2-1C204.9,265,204.9,264.7,204.9,264.3z M206.1,265.3
		c0,0.3,0,0.6,0.1,0.9c0.1,0.3,0.2,0.6,0.3,1s0.2,0.6,0.4,0.9c0.1,0.3,0.2,0.6,0.4,0.8l0.2,0.3c0.9-0.6,1.6-1.2,2.1-1.7
		c0.5-0.6,0.7-1.3,0.7-2.1c0-0.5-0.1-0.9-0.2-1.2c-0.1-0.3-0.3-0.6-0.5-0.7c-0.2-0.2-0.4-0.3-0.7-0.4c-0.3-0.1-0.5-0.1-0.8-0.1
		c-0.4,0-0.8,0.1-1,0.3c-0.3,0.2-0.5,0.3-0.6,0.6c-0.1,0.2-0.2,0.5-0.3,0.7S206.1,265.1,206.1,265.3z M208.2,272.1l-0.9-0.5
		l-0.2,1.1l0.9,0.5L208.2,272.1z M211.4,279.2l-1.9-4.7l-1-0.6l-0.1,1.2L211.4,279.2z"/>
	<path d="M223.9,278.9c-0.1-0.6-0.1-1,0.1-1.4c0.2-0.4,0.6-0.6,1.2-0.6c0.2,0,0.4,0,0.5,0.1c0.2,0.1,0.3,0.2,0.4,0.3
		c0.1,0.1,0.2,0.3,0.3,0.5s0,0.4,0,0.6c-0.1,0.4-0.1,0.7,0,0.9c0.1,0.2,0.4,0.4,0.9,0.4c0.2,0,0.4-0.1,0.6-0.2
		c0.2-0.1,0.3-0.2,0.5-0.4s0.3-0.4,0.4-0.6s0.2-0.5,0.3-0.7c0.2-0.6,0.3-1.2,0.4-2v-12.7l-2.5-1.4h8l-2.7,1.4v12.3
		c0,1-0.1,2-0.5,2.8c-0.1,0.4-0.3,0.7-0.5,1c-0.2,0.3-0.5,0.6-0.9,0.9c-0.4,0.3-0.8,0.5-1.3,0.6c-0.5,0.2-1,0.2-1.7,0.2
		c-0.6,0-1.1-0.1-1.5-0.2c-0.4-0.1-0.7-0.3-1-0.5c-0.3-0.2-0.5-0.4-0.7-0.7C224.1,279.3,224,279.1,223.9,278.9z M229.2,279.6
		c0.4-0.3,0.8-0.6,1.1-1s0.6-0.9,0.8-1.4c0.2-0.4,0.3-0.8,0.4-1.2c0.1-0.4,0.1-1,0.1-1.5l-0.6-1.1l-0.6,1.1c0,0.4,0,0.8,0.1,1.2
		c0,0.4,0,0.8,0,1.2c-0.1,0.5-0.2,1-0.4,1.5C229.8,278.7,229.6,279.2,229.2,279.6z M230.9,263.7l-0.7,5.1l0.6,1.1l0.7-1.1
		L230.9,263.7z M230.3,271.5l0.6,0.9l0.6-0.9l-0.6-0.8L230.3,271.5z"/>
	<path d="M240.9,263.9v4.7l-1.6-4h-2.6v5.3h1.6l1.1-1.6v4l-1-1.5h-1.6v5.3h2.7l1.5-5v6h-7.7l1-0.8v-11.6l-1-0.9H240.9z"/>
	<path d="M241.4,277.2l1.5-0.9v-11.4l-1.2-1h4.2c0.2,0,0.5,0,0.9,0.1c0.4,0.1,0.8,0.2,1.2,0.4c0.4,0.2,0.7,0.5,1,1s0.5,1,0.5,1.7
		c0,0.7-0.1,1.2-0.3,1.7c-0.2,0.5-0.4,0.8-0.7,1.1s-0.5,0.5-0.8,0.6c-0.3,0.1-0.5,0.2-0.7,0.2l3,5.6l1.2,0.9h-3.4l-2.8-5.8v4.9
		l1.5,0.9H241.4z M245.1,269.9c0.5,0,1-0.1,1.3-0.2c0.2-0.1,0.3-0.2,0.5-0.3c0.2-0.1,0.3-0.3,0.4-0.5s0.2-0.4,0.3-0.7
		c0.1-0.3,0.1-0.6,0.1-1c0-0.6-0.2-1.1-0.5-1.5c-0.3-0.3-0.6-0.6-0.9-0.7c-0.4-0.2-0.8-0.2-1.3-0.3V269.9z"/>
	<path d="M259.4,263.9v4.7l-1.6-4h-2.6v5.3h1.6l1.1-1.6v4l-1-1.5h-1.6v5.3h2.7l1.5-5v6h-7.7l1-0.8v-11.6l-1-0.9H259.4z"/>
	<path d="M259.9,277.2l1.1-0.9v-11.5l-1.1-0.9h3.6l2.8,7.6l3.1-7.6h3.3l-1.1,0.9v11.5l1.1,0.9H268l1.2-0.9v-8.7l-3.4,9.6l-3.3-9.6
		v8.6l0.9,1H259.9z"/>
	<path d="M277,263.9l-0.7,0.9l1.7,3.8l1.6-3.8l-0.7-0.9h2.8l-0.8,0.9l-2.2,5.2v6.3l0.8,0.9h-4.1l0.9-1v-6.1l-2.2-5.3l-1-0.9H277z"/>
</g>
</svg>
