<?xml version="1.0" encoding="iso-8859-1"?>
<!-- Generator: Adobe Illustrator 19.0.0, SVG Export Plug-In . SVG Version: 6.00 Build 0)  -->
<svg version="1.1" id="Capa_1" xmlns="http://www.w3.org/2000/svg" xmlns:xlink="http://www.w3.org/1999/xlink" x="0px" y="0px"
	 viewBox="0 0 512 512" style="enable-background:new 0 0 512 512;" xml:space="preserve">
<rect x="234.409" y="355.807" style="fill:#E2EEFD;" width="43.184" height="102.034"/>
<rect x="256.176" y="355.807" style="fill:#C7DCF2;" width="21.417" height="102.034"/>
<path style="fill:#E2EEFD;" d="M347.062,504.487H164.937c-2.772,0-5.019-2.247-5.019-5.019v-15.791
	c0-14.268,11.567-25.835,25.835-25.835h140.493c14.268,0,25.835,11.567,25.835,25.835v15.791
	C352.081,502.24,349.834,504.487,347.062,504.487z"/>
<path style="fill:#C7DCF2;" d="M352.086,483.675v15.799c0,2.772-2.247,5.019-5.019,5.019h-27.592v-20.818
	c0-14.263-11.563-25.836-25.836-25.836h32.611C340.519,457.839,352.086,469.406,352.086,483.675z"/>
<path style="fill:#E2EEFD;" d="M428.328,148.891c-4.626-17.265-10.389-34.203-16.222-51.09
	c-10.267-29.72-22.041-59.239-35.937-87.489c-0.844-1.716-2.597-2.799-4.51-2.799H140.34c-1.912,0-3.665,1.083-4.51,2.799
	c-13.897,28.25-25.671,57.771-35.937,87.489c-5.834,16.887-11.596,33.825-16.222,51.09c-15.582,58.154-11.16,116.713,27.372,164.916
	c73.827,92.357,216.118,92.317,289.913,0C439.489,265.604,443.909,207.045,428.328,148.891z"/>
<path style="fill:#C7DCF2;" d="M400.957,313.802c-42.407,53.056-107.448,75.641-169.107,67.711
	c45.67-5.842,89.492-28.415,120.898-67.711c38.533-48.199,42.959-106.756,27.372-164.912c-4.627-17.264-10.389-34.207-16.22-51.089
	c-10.599-30.704-22.815-61.187-37.319-90.285h45.075c1.912,0,3.665,1.083,4.51,2.799c13.899,28.251,25.674,57.765,35.943,87.486
	c5.832,16.883,11.593,33.826,16.221,51.089C443.907,207.046,439.491,265.604,400.957,313.802z"/>
<path style="fill:#BC0F0F;" d="M375.644,164.962c9.466-4.337,20.442,1.412,22.217,11.674c6.969,40.292,0.771,79.969-25.962,113.413
	c-59.003,73.812-172.771,73.844-231.798,0c-24.651-30.839-31.84-66.978-27.348-104.011c1.448-11.938,15.286-17.688,25.023-10.63
	c21.035,15.246,46.105,24.828,71.72,30.948c33.38,7.973,64.93,7.511,97.016-4.61C330.873,192.542,351.966,175.813,375.644,164.962z"
	/>
<path style="fill:#A80505;" d="M371.9,290.045c-33.504,41.915-84.674,60.042-133.446,54.352
	c37.127-4.326,72.86-22.453,98.355-54.352c26.74-33.444,32.932-73.122,25.966-113.41c-0.271-1.576-0.763-3.041-1.425-4.376
	c4.687-2.599,9.435-5.079,14.293-7.297c9.465-4.336,20.446,1.415,22.213,11.673C404.832,216.923,398.629,256.6,371.9,290.045z"/>
<path d="M435.585,146.947c-4.618-17.233-10.382-34.241-16.378-51.599c-11.373-32.921-23.246-61.821-36.297-88.354
	C380.82,2.746,376.403,0,371.659,0L230.456,0.003c-4.149,0-7.513,3.364-7.513,7.513s3.364,7.513,7.513,7.513l139.657-0.003
	c12.503,25.585,23.926,53.484,34.892,85.228c5.904,17.092,11.576,33.824,16.066,50.581c7.914,29.538,10.076,57.527,6.426,83.187
	c-3.968,27.89-14.871,53.155-32.409,75.093c-33.748,42.218-84.445,66.431-139.093,66.431c-54.641,0-105.336-24.213-139.083-66.431
	c-17.537-21.938-28.44-47.204-32.408-75.093c-3.651-25.661-1.489-53.648,6.426-83.187c4.493-16.77,10.163-33.495,16.066-50.581
	c10.965-31.746,22.384-59.644,34.889-85.228h42.18c4.149,0,7.513-3.364,7.513-7.513S188.215,0,184.066,0h-43.726
	c-4.744,0-9.161,2.746-11.251,6.995c-13.051,26.531-24.923,55.432-36.297,88.353c-5.994,17.352-11.757,34.354-16.378,51.599
	c-17.798,66.426-7.852,125.748,28.76,171.551c30.533,38.196,73.834,62.792,121.723,69.915v61.917h-41.143
	c-18.388,0-33.349,14.959-33.349,33.348v15.791c0,6.91,5.622,12.531,12.531,12.531h182.126c6.91,0,12.531-5.622,12.531-12.531
	v-15.791c0-18.388-14.961-33.348-33.349-33.348h-41.143v-61.918c47.891-7.124,91.191-31.72,121.723-69.913
	C443.438,272.695,453.384,213.374,435.585,146.947z M344.569,483.678v13.297H167.431v-13.297c0-10.103,8.22-18.322,18.323-18.322
	h48.656h43.18h48.656C336.349,465.355,344.569,473.574,344.569,483.678z M270.077,450.33h-28.154v-60.273
	c4.66,0.331,9.351,0.516,14.072,0.516c4.725,0,9.419-0.185,14.083-0.517v60.274H270.077z"/>
<path d="M270.666,337.158c-37.343,3.827-73.791-6.732-102.627-29.727c-3.245-2.587-7.971-2.055-10.558,1.19
	c-2.587,3.244-2.054,7.971,1.19,10.558c27.651,22.05,61.593,33.774,97.004,33.774c5.477,0,10.991-0.28,16.521-0.847
	c41.94-4.295,79.432-24.667,105.57-57.365c26.264-32.857,35.516-73.024,27.497-119.385c-1.244-7.194-5.656-13.27-12.104-16.666
	c-6.462-3.406-13.987-3.608-20.646-0.557c-10.767,4.934-21.01,11.037-30.914,16.939c-12.703,7.57-24.702,14.719-37.741,19.644
	c-29.271,11.056-58.699,12.432-92.617,4.33c-27.758-6.63-50.993-16.63-69.057-29.723c-6.829-4.949-15.508-5.896-23.219-2.531
	c-7.568,3.303-12.679,10.159-13.671,18.34c-4.491,37.014,2.474,70.051,20.702,98.193c2.256,3.483,6.908,4.478,10.39,2.222
	c3.483-2.256,4.478-6.908,2.222-10.39c-16.264-25.11-22.453-54.789-18.397-88.215c0.497-4.097,3.498-5.825,4.764-6.378
	c2.781-1.213,5.918-0.866,8.391,0.926c19.67,14.256,44.696,25.081,74.384,32.172c36.471,8.711,69.646,7.113,101.417-4.889
	c14.281-5.394,27.419-13.223,40.123-20.793c9.562-5.698,19.45-11.59,29.482-16.187c2.385-1.094,5.077-1.024,7.383,0.19
	c2.291,1.207,3.859,3.37,4.301,5.934c7.254,41.941-0.965,78.089-24.428,107.441C342.43,314.881,308.563,333.276,270.666,337.158z"/>
<g>
</g>
<g>
</g>
<g>
</g>
<g>
</g>
<g>
</g>
<g>
</g>
<g>
</g>
<g>
</g>
<g>
</g>
<g>
</g>
<g>
</g>
<g>
</g>
<g>
</g>
<g>
</g>
<g>
</g>
</svg>
